<svg width="65" height="65" viewBox="0 0 65 65" fill="none" xmlns="http://www.w3.org/2000/svg">
<circle cx="32.5" cy="32.5" r="32.5" fill="#BB0A21"/>
<path d="M18.535 47V23.375L13.045 25.085L12.19 22.79L19.57 18.92H22.315V47H18.535ZM35.815 39.575L47.83 24.59L48.82 27.11L36.805 41.96L35.815 39.575ZM42.25 47.495C40.36 47.495 38.74 46.94 37.39 45.83C36.07 44.72 35.05 43.1 34.33 40.97C33.61 38.81 33.25 36.2 33.25 33.14C33.25 30.14 33.61 27.575 34.33 25.445C35.05 23.285 36.07 21.62 37.39 20.45C38.74 19.28 40.36 18.695 42.25 18.695C44.14 18.695 45.745 19.28 47.065 20.45C48.415 21.62 49.45 23.285 50.17 25.445C50.89 27.575 51.25 30.14 51.25 33.14C51.25 36.2 50.89 38.81 50.17 40.97C49.45 43.1 48.415 44.72 47.065 45.83C45.745 46.94 44.14 47.495 42.25 47.495ZM42.25 44.39C43.36 44.39 44.305 43.955 45.085 43.085C45.865 42.215 46.465 40.94 46.885 39.26C47.305 37.58 47.515 35.54 47.515 33.14C47.515 30.83 47.305 28.85 46.885 27.2C46.465 25.52 45.865 24.215 45.085 23.285C44.305 22.355 43.36 21.89 42.25 21.89C41.14 21.89 40.195 22.355 39.415 23.285C38.635 24.215 38.035 25.52 37.615 27.2C37.195 28.85 36.985 30.83 36.985 33.14C36.985 35.54 37.195 37.58 37.615 39.26C38.035 40.94 38.635 42.215 39.415 43.085C40.195 43.955 41.14 44.39 42.25 44.39Z" fill="white"/>
</svg>
