<svg width="50" height="50" viewBox="0 0 50 50" fill="none" xmlns="http://www.w3.org/2000/svg">
<circle cx="25" cy="25" r="25" fill="#0083CB"/>
<path d="M25 40.495C23.2 40.495 21.55 40.12 20.05 39.37C18.58 38.62 17.395 37.54 16.495 36.13L19.33 33.925L19.69 33.655L19.915 33.88C19.885 34.12 19.915 34.345 20.005 34.555C20.125 34.765 20.335 35.065 20.635 35.455C21.205 36.085 21.835 36.55 22.525 36.85C23.245 37.15 24.1 37.3 25.09 37.3C25.81 37.3 26.485 37.15 27.115 36.85C27.745 36.55 28.285 36.13 28.735 35.59C29.215 35.05 29.59 34.39 29.86 33.61C30.13 32.83 30.265 31.975 30.265 31.045C30.265 30.085 30.13 29.215 29.86 28.435C29.59 27.655 29.215 26.995 28.735 26.455C28.255 25.915 27.685 25.495 27.025 25.195C26.365 24.895 25.645 24.745 24.865 24.745C24.235 24.745 23.605 24.85 22.975 25.06C22.375 25.24 21.805 25.525 21.265 25.915C20.755 26.275 20.275 26.725 19.825 27.265L17.485 26.455L18.43 11.965H32.92V15.205H21.625L21.175 22.72C21.655 22.48 22.135 22.285 22.615 22.135C23.095 21.955 23.59 21.835 24.1 21.775C24.61 21.685 25.105 21.64 25.585 21.64C26.815 21.64 27.94 21.865 28.96 22.315C29.98 22.735 30.865 23.35 31.615 24.16C32.395 24.97 32.98 25.96 33.37 27.13C33.79 28.27 34 29.575 34 31.045C34 32.995 33.595 34.675 32.785 36.085C32.005 37.495 30.94 38.59 29.59 39.37C28.27 40.12 26.74 40.495 25 40.495Z" fill="white"/>
</svg>
