<svg width="138" height="100" viewBox="0 0 138 100" fill="none" xmlns="http://www.w3.org/2000/svg">
<circle cx="69" cy="68" r="18" fill="#0083CB"/>
<path d="M37 15.234C35.764 15.234 34.81 14.868 34.138 14.136C33.478 13.392 33.148 12.372 33.148 11.076V3.786H35.164H35.326V3.948C35.266 4.02 35.224 4.098 35.2 4.182C35.188 4.266 35.182 4.41 35.182 4.614V11.094C35.182 11.862 35.314 12.468 35.578 12.912C35.854 13.356 36.334 13.578 37.018 13.578C37.714 13.578 38.2 13.356 38.476 12.912C38.752 12.456 38.89 11.832 38.89 11.04V3.786H40.87V11.022C40.87 11.982 40.708 12.774 40.384 13.398C40.06 14.022 39.604 14.484 39.016 14.784C38.44 15.084 37.768 15.234 37 15.234ZM42.166 3.786H44.29L48.088 11.166L47.98 3.786H49.798H49.96V3.948C49.9 4.02 49.858 4.098 49.834 4.182C49.822 4.266 49.816 4.41 49.816 4.614V15H47.926L44.002 7.134V15H42.166V3.786ZM51.76 15V13.362H53.956V5.424H51.886V3.786H58.078V5.424H55.882V13.362H58.168V15H51.76ZM62.938 15V5.496H59.914V3.786H68.068V5.496H64.882V15H62.938ZM78.526 13.488C79.222 12.816 79.84 12.222 80.38 11.706C80.92 11.178 81.388 10.704 81.784 10.284C82.192 9.852 82.528 9.45 82.792 9.078C83.068 8.706 83.272 8.346 83.404 7.998C83.536 7.638 83.602 7.26 83.602 6.864C83.602 6.6 83.566 6.372 83.494 6.18C83.434 5.988 83.332 5.832 83.188 5.712C83.056 5.58 82.888 5.484 82.684 5.424C82.492 5.352 82.27 5.316 82.018 5.316C81.766 5.316 81.526 5.346 81.298 5.406C81.082 5.466 80.872 5.556 80.668 5.676C80.476 5.796 80.296 5.958 80.128 6.162C80.02 6.318 79.948 6.444 79.912 6.54C79.888 6.624 79.882 6.714 79.894 6.81L79.786 6.936L79.66 6.846L78.256 5.766C78.532 5.298 78.862 4.908 79.246 4.596C79.642 4.284 80.074 4.044 80.542 3.876C81.022 3.708 81.52 3.624 82.036 3.624C82.684 3.624 83.272 3.756 83.8 4.02C84.328 4.284 84.748 4.662 85.06 5.154C85.372 5.634 85.528 6.204 85.528 6.864C85.528 7.332 85.456 7.776 85.312 8.196C85.18 8.604 84.988 9.006 84.736 9.402C84.496 9.786 84.196 10.182 83.836 10.59C83.476 10.998 83.074 11.43 82.63 11.886C82.186 12.33 81.706 12.816 81.19 13.344H84.736C84.94 13.344 85.084 13.332 85.168 13.308C85.252 13.284 85.33 13.236 85.402 13.164H85.564V13.344V15H78.526V13.488ZM87.526 13.488C88.222 12.816 88.84 12.222 89.38 11.706C89.92 11.178 90.388 10.704 90.784 10.284C91.192 9.852 91.528 9.45 91.792 9.078C92.068 8.706 92.272 8.346 92.404 7.998C92.536 7.638 92.602 7.26 92.602 6.864C92.602 6.6 92.566 6.372 92.494 6.18C92.434 5.988 92.332 5.832 92.188 5.712C92.056 5.58 91.888 5.484 91.684 5.424C91.492 5.352 91.27 5.316 91.018 5.316C90.766 5.316 90.526 5.346 90.298 5.406C90.082 5.466 89.872 5.556 89.668 5.676C89.476 5.796 89.296 5.958 89.128 6.162C89.02 6.318 88.948 6.444 88.912 6.54C88.888 6.624 88.882 6.714 88.894 6.81L88.786 6.936L88.66 6.846L87.256 5.766C87.532 5.298 87.862 4.908 88.246 4.596C88.642 4.284 89.074 4.044 89.542 3.876C90.022 3.708 90.52 3.624 91.036 3.624C91.684 3.624 92.272 3.756 92.8 4.02C93.328 4.284 93.748 4.662 94.06 5.154C94.372 5.634 94.528 6.204 94.528 6.864C94.528 7.332 94.456 7.776 94.312 8.196C94.18 8.604 93.988 9.006 93.736 9.402C93.496 9.786 93.196 10.182 92.836 10.59C92.476 10.998 92.074 11.43 91.63 11.886C91.186 12.33 90.706 12.816 90.19 13.344H93.736C93.94 13.344 94.084 13.332 94.168 13.308C94.252 13.284 94.33 13.236 94.402 13.164H94.564V13.344V15H87.526V13.488ZM100.612 15V12.336H96.22V11.004L101.08 3.786H102.592V10.698H104.068V12.354H102.592V15H100.612ZM98.272 10.734H100.666V6.99L98.272 10.734Z" fill="black"/>
<path d="M13.912 32.656C14.5307 32.0587 15.08 31.5307 15.56 31.072C16.04 30.6027 16.456 30.1813 16.808 29.808C17.1707 29.424 17.4693 29.0667 17.704 28.736C17.9493 28.4053 18.1307 28.0853 18.248 27.776C18.3653 27.456 18.424 27.12 18.424 26.768C18.424 26.5333 18.392 26.3307 18.328 26.16C18.2747 25.9893 18.184 25.8507 18.056 25.744C17.9387 25.6267 17.7893 25.5413 17.608 25.488C17.4373 25.424 17.24 25.392 17.016 25.392C16.792 25.392 16.5787 25.4187 16.376 25.472C16.184 25.5253 15.9973 25.6053 15.816 25.712C15.6453 25.8187 15.4853 25.9627 15.336 26.144C15.24 26.2827 15.176 26.3947 15.144 26.48C15.1227 26.5547 15.1173 26.6347 15.128 26.72L15.032 26.832L14.92 26.752L13.672 25.792C13.9173 25.376 14.2107 25.0293 14.552 24.752C14.904 24.4747 15.288 24.2613 15.704 24.112C16.1307 23.9627 16.5733 23.888 17.032 23.888C17.608 23.888 18.1307 24.0053 18.6 24.24C19.0693 24.4747 19.4427 24.8107 19.72 25.248C19.9973 25.6747 20.136 26.1813 20.136 26.768C20.136 27.184 20.072 27.5787 19.944 27.952C19.8267 28.3147 19.656 28.672 19.432 29.024C19.2187 29.3653 18.952 29.7173 18.632 30.08C18.312 30.4427 17.9547 30.8267 17.56 31.232C17.1653 31.6267 16.7387 32.0587 16.28 32.528H19.432C19.6133 32.528 19.7413 32.5173 19.816 32.496C19.8907 32.4747 19.96 32.432 20.024 32.368H20.168V32.528V34H13.912V32.656ZM23.4 34.688L21.736 33.968L26.664 23.328L28.296 24.16L23.4 34.688ZM33.032 34.192C32.3387 34.192 31.7093 34.0587 31.144 33.792C30.5893 33.5253 30.1627 33.1307 29.864 32.608L31.128 31.568L31.256 31.472L31.336 31.584C31.336 31.6693 31.352 31.7493 31.384 31.824C31.416 31.8987 31.4853 32.0053 31.592 32.144C31.784 32.336 31.9973 32.48 32.232 32.576C32.4667 32.672 32.728 32.72 33.016 32.72C33.2507 32.72 33.4693 32.6773 33.672 32.592C33.8747 32.496 34.0453 32.3627 34.184 32.192C34.3333 32.0213 34.4507 31.8187 34.536 31.584C34.6213 31.3493 34.664 31.0987 34.664 30.832C34.664 30.5333 34.6213 30.2667 34.536 30.032C34.4613 29.7867 34.3493 29.5787 34.2 29.408C34.0613 29.2267 33.8853 29.088 33.672 28.992C33.4693 28.896 33.2347 28.848 32.968 28.848C32.7653 28.848 32.5627 28.88 32.36 28.944C32.1573 28.9973 31.9707 29.0827 31.8 29.2C31.64 29.3067 31.4907 29.4507 31.352 29.632L30.248 29.344L30.616 24.032H35.944V25.488H32.12L31.976 27.744C32.104 27.68 32.248 27.6213 32.408 27.568C32.568 27.504 32.7333 27.4613 32.904 27.44C33.0747 27.408 33.2347 27.392 33.384 27.392C33.832 27.392 34.2373 27.4667 34.6 27.616C34.9627 27.7547 35.2773 27.968 35.544 28.256C35.8107 28.5333 36.0133 28.88 36.152 29.296C36.3013 29.712 36.376 30.1813 36.376 30.704C36.376 31.4187 36.2267 32.0373 35.928 32.56C35.64 33.0827 35.2453 33.488 34.744 33.776C34.2533 34.0533 33.6827 34.192 33.032 34.192ZM48.168 34.192C47.3467 34.192 46.7067 34 46.248 33.616C45.8 33.2213 45.576 32.7147 45.576 32.096C45.576 31.7013 45.6613 31.3387 45.832 31.008C46.0133 30.6667 46.28 30.3733 46.632 30.128C46.984 29.8827 47.4213 29.696 47.944 29.568C48.4667 29.4293 49.064 29.36 49.736 29.36C49.8213 29.36 49.928 29.36 50.056 29.36C50.184 29.36 50.3227 29.3653 50.472 29.376C50.6213 29.376 50.76 29.3867 50.888 29.408L50.936 30.656C50.8293 30.6453 50.7013 30.64 50.552 30.64C50.4027 30.6293 50.248 30.624 50.088 30.624C49.9387 30.6133 49.8107 30.608 49.704 30.608C49.2773 30.608 48.9147 30.64 48.616 30.704C48.328 30.768 48.0933 30.8587 47.912 30.976C47.7307 31.0827 47.5973 31.216 47.512 31.376C47.4267 31.5253 47.384 31.6907 47.384 31.872C47.384 32.0427 47.4107 32.1867 47.464 32.304C47.528 32.4213 47.608 32.5173 47.704 32.592C47.8107 32.656 47.9333 32.704 48.072 32.736C48.2107 32.768 48.36 32.784 48.52 32.784C48.84 32.784 49.1173 32.736 49.352 32.64C49.5973 32.5333 49.8 32.368 49.96 32.144C50.1307 31.92 50.2533 31.6427 50.328 31.312C50.4133 30.9707 50.456 30.5707 50.456 30.112C50.456 29.4933 50.392 29.0187 50.264 28.688C50.136 28.3573 49.9493 28.128 49.704 28C49.4587 27.8613 49.1493 27.792 48.776 27.792C48.4347 27.792 48.1093 27.8507 47.8 27.968C47.5013 28.0747 47.208 28.2773 46.92 28.576L45.928 27.488C46.344 27.0933 46.808 26.8107 47.32 26.64C47.832 26.4693 48.344 26.384 48.856 26.384C49.3253 26.384 49.7627 26.4373 50.168 26.544C50.5733 26.6507 50.9253 26.832 51.224 27.088C51.5333 27.3333 51.7733 27.6747 51.944 28.112C52.1253 28.5387 52.216 29.072 52.216 29.712V34H50.344V33.2C50.2053 33.3813 50.056 33.536 49.896 33.664C49.736 33.792 49.5653 33.8933 49.384 33.968C49.2027 34.0427 49.0107 34.096 48.808 34.128C48.6053 34.1707 48.392 34.192 48.168 34.192ZM57.784 34.16C57.3573 34.16 56.984 34.0907 56.664 33.952C56.3547 33.8133 56.0933 33.5893 55.88 33.28C55.6773 32.9707 55.528 32.56 55.432 32.048C55.3467 31.536 55.32 30.9013 55.352 30.144L55.56 24.8L57.432 24.56L57.576 24.544L57.592 24.688C57.5493 24.7627 57.5067 24.8373 57.464 24.912C57.4213 24.9867 57.3947 25.1147 57.384 25.296L57.208 27.504L57.288 27.616L57.16 30.112C57.128 30.8053 57.1493 31.344 57.224 31.728C57.3093 32.1013 57.432 32.3573 57.592 32.496C57.7627 32.6347 57.9653 32.704 58.2 32.704C58.5413 32.704 58.8453 32.6347 59.112 32.496C59.3893 32.3573 59.6453 32.1973 59.88 32.016L60.264 33.328C59.9013 33.5947 59.512 33.8027 59.096 33.952C58.6907 34.0907 58.2533 34.16 57.784 34.16ZM53.944 26.56H59.672L59.656 27.984H53.912L53.944 26.56ZM73.16 34.176C72.4453 34.176 71.8373 33.9787 71.336 33.584C70.8347 33.1893 70.456 32.64 70.2 31.936C69.944 31.2213 69.816 30.384 69.816 29.424C69.816 28.2507 69.976 27.2533 70.296 26.432C70.6267 25.6 71.0693 24.9653 71.624 24.528C72.1893 24.0907 72.8347 23.872 73.56 23.872C73.9973 23.872 74.44 23.952 74.888 24.112C75.3467 24.2613 75.7467 24.5067 76.088 24.848L75.096 25.952L75 26.08L74.872 25.984C74.8613 25.8987 74.8293 25.8293 74.776 25.776C74.7227 25.712 74.6267 25.632 74.488 25.536C74.4133 25.4933 74.3333 25.4613 74.248 25.44C74.1627 25.4187 74.0773 25.4027 73.992 25.392C73.9067 25.3813 73.816 25.376 73.72 25.376C73.56 25.376 73.3893 25.3973 73.208 25.44C73.0267 25.4827 72.8453 25.5627 72.664 25.68C72.4933 25.7973 72.328 25.968 72.168 26.192C72.0187 26.4053 71.8907 26.688 71.784 27.04C71.688 27.3813 71.624 27.808 71.592 28.32C71.7307 28.128 71.9013 27.968 72.104 27.84C72.3067 27.712 72.52 27.616 72.744 27.552C72.9787 27.4773 73.208 27.44 73.432 27.44C73.8267 27.44 74.1947 27.5093 74.536 27.648C74.888 27.7867 75.192 27.9947 75.448 28.272C75.704 28.5387 75.9013 28.8747 76.04 29.28C76.1893 29.6853 76.264 30.16 76.264 30.704C76.264 31.3653 76.1307 31.9573 75.864 32.48C75.5973 33.0027 75.2293 33.4187 74.76 33.728C74.2907 34.0267 73.7573 34.176 73.16 34.176ZM73.192 32.72C73.3947 32.72 73.5813 32.672 73.752 32.576C73.9227 32.48 74.072 32.3467 74.2 32.176C74.328 31.9947 74.424 31.7813 74.488 31.536C74.552 31.2907 74.584 31.0133 74.584 30.704C74.584 30.384 74.5467 30.112 74.472 29.888C74.3973 29.6533 74.2907 29.4613 74.152 29.312C74.0133 29.1627 73.8587 29.0507 73.688 28.976C73.5173 28.9013 73.3467 28.864 73.176 28.864C73.016 28.864 72.8613 28.8907 72.712 28.944C72.5733 28.9973 72.4347 29.072 72.296 29.168C72.168 29.264 72.0453 29.3813 71.928 29.52C71.8213 29.648 71.7253 29.792 71.64 29.952C71.6187 30.3573 71.64 30.7307 71.704 31.072C71.768 31.4027 71.8693 31.696 72.008 31.952C72.1467 32.1973 72.3173 32.3893 72.52 32.528C72.7227 32.656 72.9467 32.72 73.192 32.72ZM80.76 29.344C80.4293 29.344 80.1467 29.2213 79.912 28.976C79.6773 28.7307 79.56 28.4533 79.56 28.144C79.56 27.824 79.6773 27.5413 79.912 27.296C80.1467 27.0507 80.4293 26.928 80.76 26.928C81.0693 26.928 81.3467 27.0453 81.592 27.28C81.848 27.5147 81.976 27.8027 81.976 28.144C81.976 28.4533 81.8587 28.7307 81.624 28.976C81.3893 29.2213 81.1013 29.344 80.76 29.344ZM80.76 34.192C80.4187 34.192 80.1307 34.0747 79.896 33.84C79.672 33.5947 79.56 33.312 79.56 32.992C79.56 32.672 79.6773 32.3893 79.912 32.144C80.1467 31.888 80.4293 31.76 80.76 31.76C81.0693 31.76 81.3467 31.8827 81.592 32.128C81.848 32.3627 81.976 32.6507 81.976 32.992C81.976 33.3013 81.8587 33.5787 81.624 33.824C81.4 34.0693 81.112 34.192 80.76 34.192ZM88.76 34.192C88.1733 34.192 87.6027 34.096 87.048 33.904C86.4933 33.7013 86.0453 33.3973 85.704 32.992L86.616 31.664L86.712 31.536L86.84 31.616C86.8613 31.7013 86.8827 31.7867 86.904 31.872C86.936 31.9573 87.016 32.064 87.144 32.192C87.336 32.3627 87.56 32.5013 87.816 32.608C88.0827 32.704 88.3707 32.752 88.68 32.752C89.0213 32.752 89.3093 32.688 89.544 32.56C89.7787 32.4213 89.9547 32.2347 90.072 32C90.2 31.7547 90.264 31.4773 90.264 31.168C90.264 30.8373 90.2053 30.56 90.088 30.336C89.9813 30.1013 89.816 29.92 89.592 29.792C89.3787 29.664 89.1067 29.5787 88.776 29.536C88.456 29.4933 88.0773 29.4987 87.64 29.552V28.144C88.1093 28.1547 88.4987 28.1227 88.808 28.048C89.1173 27.9733 89.3627 27.8667 89.544 27.728C89.7253 27.5893 89.8533 27.4293 89.928 27.248C90.0027 27.056 90.04 26.8587 90.04 26.656C90.04 26.4533 90.008 26.2773 89.944 26.128C89.88 25.968 89.7893 25.8347 89.672 25.728C89.5653 25.6107 89.4267 25.5253 89.256 25.472C89.096 25.408 88.9147 25.376 88.712 25.376C88.4987 25.376 88.2853 25.4027 88.072 25.456C87.8693 25.5093 87.672 25.5947 87.48 25.712C87.2987 25.8187 87.128 25.9627 86.968 26.144L85.928 25.088C86.312 24.6613 86.7547 24.3573 87.256 24.176C87.768 23.984 88.2747 23.888 88.776 23.888C89.3627 23.888 89.88 24 90.328 24.224C90.7867 24.448 91.144 24.752 91.4 25.136C91.656 25.52 91.784 25.9627 91.784 26.464C91.784 26.8267 91.7093 27.1573 91.56 27.456C91.4213 27.7547 91.2293 28.0107 90.984 28.224C90.7493 28.4267 90.4987 28.5867 90.232 28.704C90.5413 28.8107 90.8347 28.9707 91.112 29.184C91.4 29.3973 91.6293 29.6747 91.8 30.016C91.9813 30.3467 92.072 30.752 92.072 31.232C92.072 31.776 91.9387 32.272 91.672 32.72C91.4053 33.168 91.0267 33.5253 90.536 33.792C90.0453 34.0587 89.4533 34.192 88.76 34.192ZM97.032 34.192C96.3387 34.192 95.7093 34.0587 95.144 33.792C94.5893 33.5253 94.1627 33.1307 93.864 32.608L95.128 31.568L95.256 31.472L95.336 31.584C95.336 31.6693 95.352 31.7493 95.384 31.824C95.416 31.8987 95.4853 32.0053 95.592 32.144C95.784 32.336 95.9973 32.48 96.232 32.576C96.4667 32.672 96.728 32.72 97.016 32.72C97.2507 32.72 97.4693 32.6773 97.672 32.592C97.8747 32.496 98.0453 32.3627 98.184 32.192C98.3333 32.0213 98.4507 31.8187 98.536 31.584C98.6213 31.3493 98.664 31.0987 98.664 30.832C98.664 30.5333 98.6213 30.2667 98.536 30.032C98.4613 29.7867 98.3493 29.5787 98.2 29.408C98.0613 29.2267 97.8853 29.088 97.672 28.992C97.4693 28.896 97.2347 28.848 96.968 28.848C96.7653 28.848 96.5627 28.88 96.36 28.944C96.1573 28.9973 95.9707 29.0827 95.8 29.2C95.64 29.3067 95.4907 29.4507 95.352 29.632L94.248 29.344L94.616 24.032H99.944V25.488H96.12L95.976 27.744C96.104 27.68 96.248 27.6213 96.408 27.568C96.568 27.504 96.7333 27.4613 96.904 27.44C97.0747 27.408 97.2347 27.392 97.384 27.392C97.832 27.392 98.2373 27.4667 98.6 27.616C98.9627 27.7547 99.2773 27.968 99.544 28.256C99.8107 28.5333 100.013 28.88 100.152 29.296C100.301 29.712 100.376 30.1813 100.376 30.704C100.376 31.4187 100.227 32.0373 99.928 32.56C99.64 33.0827 99.2453 33.488 98.744 33.776C98.2533 34.0533 97.6827 34.192 97.032 34.192ZM114.872 31.68H110.968L111.224 30.384H114.568L114.872 31.68ZM113 27.312L110.984 34H109.192L112.568 23.968H113.432L116.808 34H114.984L113 27.312ZM117.512 34V24.032H119.096L121.032 28.608L122.968 24.016H124.552V34H122.984V27.04L121.416 30.704H120.536L119.064 27.056V34H117.512Z" fill="black"/>
</svg>
