<svg width="138" height="123" viewBox="0 0 138 123" fill="none" xmlns="http://www.w3.org/2000/svg">
<circle cx="73.5" cy="71.5" r="32.5" fill="#BB0A21"/>
<path d="M74.8541 68.2114V88.5239H72.1458V68.2114H74.8541Z" fill="white"/>
<path d="M74.8541 98.0029V93.9404H72.1458V98.0029H74.8541Z" fill="white"/>
<path d="M66.48 57.678H62.304L62.574 56.544H66.174L66.48 57.678ZM64.482 52.548L61.764 60.738H60.27L64.284 49.362H64.716L68.73 60.738H67.182L64.482 52.548ZM69.792 60.738V49.524H73.068C73.716 49.524 74.28 49.59 74.76 49.722C75.24 49.854 75.636 50.046 75.948 50.298C76.26 50.538 76.488 50.826 76.632 51.162C76.788 51.498 76.866 51.87 76.866 52.278C76.866 52.614 76.8 52.95 76.668 53.286C76.548 53.61 76.368 53.904 76.128 54.168C75.888 54.42 75.588 54.612 75.228 54.744C75.54 54.864 75.822 55.02 76.074 55.212C76.338 55.404 76.56 55.626 76.74 55.878C76.92 56.118 77.058 56.382 77.154 56.67C77.262 56.958 77.316 57.252 77.316 57.552C77.316 58.032 77.226 58.47 77.046 58.866C76.878 59.25 76.62 59.586 76.272 59.874C75.924 60.15 75.48 60.366 74.94 60.522C74.4 60.666 73.77 60.738 73.05 60.738H69.792ZM71.304 59.442H73.266C73.758 59.442 74.184 59.376 74.544 59.244C74.916 59.112 75.204 58.902 75.408 58.614C75.612 58.326 75.714 57.954 75.714 57.498C75.714 57.078 75.624 56.712 75.444 56.4C75.264 56.076 74.976 55.824 74.58 55.644C74.184 55.452 73.644 55.356 72.96 55.356H71.304V59.442ZM71.304 54.114H72.888C73.5 54.114 73.986 54.042 74.346 53.898C74.706 53.754 74.958 53.556 75.102 53.304C75.258 53.04 75.336 52.752 75.336 52.44C75.336 52.2 75.294 51.984 75.21 51.792C75.126 51.588 74.994 51.414 74.814 51.27C74.646 51.114 74.418 50.994 74.13 50.91C73.842 50.826 73.494 50.784 73.086 50.784H71.304V54.114ZM82.41 60.918C81.678 60.918 81.006 60.804 80.394 60.576C79.794 60.336 79.272 59.988 78.828 59.532L79.602 58.218L79.674 58.056L79.8 58.128C79.824 58.212 79.854 58.308 79.89 58.416C79.938 58.512 80.028 58.632 80.16 58.776C80.472 59.028 80.826 59.232 81.222 59.388C81.618 59.532 82.062 59.604 82.554 59.604C82.878 59.604 83.172 59.562 83.436 59.478C83.7 59.382 83.928 59.256 84.12 59.1C84.324 58.944 84.48 58.758 84.588 58.542C84.696 58.326 84.75 58.092 84.75 57.84C84.75 57.648 84.726 57.474 84.678 57.318C84.642 57.162 84.57 57.018 84.462 56.886C84.354 56.754 84.21 56.622 84.03 56.49C83.85 56.358 83.616 56.214 83.328 56.058C83.04 55.902 82.692 55.734 82.284 55.554C81.516 55.242 80.904 54.912 80.448 54.564C80.004 54.216 79.686 53.844 79.494 53.448C79.302 53.052 79.206 52.626 79.206 52.17C79.206 51.618 79.35 51.132 79.638 50.712C79.926 50.292 80.328 49.962 80.844 49.722C81.372 49.482 81.984 49.362 82.68 49.362C83.112 49.362 83.52 49.422 83.904 49.542C84.3 49.65 84.666 49.806 85.002 50.01C85.338 50.214 85.638 50.472 85.902 50.784L85.038 51.864L84.93 52.008L84.804 51.918C84.792 51.822 84.768 51.726 84.732 51.63C84.696 51.534 84.612 51.414 84.48 51.27C84.216 51.018 83.934 50.85 83.634 50.766C83.334 50.67 82.974 50.622 82.554 50.622C82.278 50.622 82.026 50.658 81.798 50.73C81.582 50.802 81.396 50.91 81.24 51.054C81.084 51.198 80.958 51.36 80.862 51.54C80.778 51.708 80.736 51.888 80.736 52.08C80.736 52.272 80.76 52.446 80.808 52.602C80.856 52.746 80.934 52.89 81.042 53.034C81.15 53.178 81.3 53.328 81.492 53.484C81.696 53.628 81.948 53.778 82.248 53.934C82.56 54.078 82.932 54.24 83.364 54.42C83.928 54.66 84.396 54.894 84.768 55.122C85.14 55.35 85.428 55.596 85.632 55.86C85.848 56.112 86.004 56.388 86.1 56.688C86.196 56.976 86.244 57.306 86.244 57.678C86.244 58.194 86.112 58.704 85.848 59.208C85.584 59.712 85.17 60.126 84.606 60.45C84.042 60.762 83.31 60.918 82.41 60.918Z" fill="white"/>
<path d="M37 15.234C35.764 15.234 34.81 14.868 34.138 14.136C33.478 13.392 33.148 12.372 33.148 11.076V3.786H35.164H35.326V3.948C35.266 4.02 35.224 4.098 35.2 4.182C35.188 4.266 35.182 4.41 35.182 4.614V11.094C35.182 11.862 35.314 12.468 35.578 12.912C35.854 13.356 36.334 13.578 37.018 13.578C37.714 13.578 38.2 13.356 38.476 12.912C38.752 12.456 38.89 11.832 38.89 11.04V3.786H40.87V11.022C40.87 11.982 40.708 12.774 40.384 13.398C40.06 14.022 39.604 14.484 39.016 14.784C38.44 15.084 37.768 15.234 37 15.234ZM42.166 3.786H44.29L48.088 11.166L47.98 3.786H49.798H49.96V3.948C49.9 4.02 49.858 4.098 49.834 4.182C49.822 4.266 49.816 4.41 49.816 4.614V15H47.926L44.002 7.134V15H42.166V3.786ZM51.76 15V13.362H53.956V5.424H51.886V3.786H58.078V5.424H55.882V13.362H58.168V15H51.76ZM62.938 15V5.496H59.914V3.786H68.068V5.496H64.882V15H62.938ZM81.244 15V6L79.21 6.72L78.778 5.37L81.766 3.786H83.278V15H81.244ZM87.526 13.488C88.222 12.816 88.84 12.222 89.38 11.706C89.92 11.178 90.388 10.704 90.784 10.284C91.192 9.852 91.528 9.45 91.792 9.078C92.068 8.706 92.272 8.346 92.404 7.998C92.536 7.638 92.602 7.26 92.602 6.864C92.602 6.6 92.566 6.372 92.494 6.18C92.434 5.988 92.332 5.832 92.188 5.712C92.056 5.58 91.888 5.484 91.684 5.424C91.492 5.352 91.27 5.316 91.018 5.316C90.766 5.316 90.526 5.346 90.298 5.406C90.082 5.466 89.872 5.556 89.668 5.676C89.476 5.796 89.296 5.958 89.128 6.162C89.02 6.318 88.948 6.444 88.912 6.54C88.888 6.624 88.882 6.714 88.894 6.81L88.786 6.936L88.66 6.846L87.256 5.766C87.532 5.298 87.862 4.908 88.246 4.596C88.642 4.284 89.074 4.044 89.542 3.876C90.022 3.708 90.52 3.624 91.036 3.624C91.684 3.624 92.272 3.756 92.8 4.02C93.328 4.284 93.748 4.662 94.06 5.154C94.372 5.634 94.528 6.204 94.528 6.864C94.528 7.332 94.456 7.776 94.312 8.196C94.18 8.604 93.988 9.006 93.736 9.402C93.496 9.786 93.196 10.182 92.836 10.59C92.476 10.998 92.074 11.43 91.63 11.886C91.186 12.33 90.706 12.816 90.19 13.344H93.736C93.94 13.344 94.084 13.332 94.168 13.308C94.252 13.284 94.33 13.236 94.402 13.164H94.564V13.344V15H87.526V13.488ZM99.532 15.198C98.968 15.198 98.422 15.126 97.894 14.982C97.366 14.826 96.886 14.562 96.454 14.19L97.498 12.696L97.588 12.552L97.732 12.642C97.756 12.738 97.792 12.828 97.84 12.912C97.9 12.984 98.002 13.086 98.146 13.218C98.35 13.326 98.554 13.41 98.758 13.47C98.974 13.518 99.208 13.542 99.46 13.542C99.808 13.542 100.114 13.446 100.378 13.254C100.654 13.062 100.888 12.78 101.08 12.408C101.272 12.036 101.422 11.604 101.53 11.112C101.638 10.62 101.692 10.074 101.692 9.474C101.716 8.442 101.662 7.62 101.53 7.008C101.398 6.384 101.2 5.934 100.936 5.658C100.684 5.382 100.348 5.244 99.928 5.244C99.676 5.244 99.442 5.298 99.226 5.406C99.022 5.502 98.842 5.652 98.686 5.856C98.542 6.048 98.428 6.282 98.344 6.558C98.272 6.834 98.236 7.146 98.236 7.494C98.236 7.806 98.278 8.082 98.362 8.322C98.458 8.55 98.584 8.748 98.74 8.916C98.896 9.072 99.076 9.192 99.28 9.276C99.484 9.36 99.7 9.402 99.928 9.402C100.24 9.402 100.522 9.366 100.774 9.294C101.026 9.222 101.254 9.102 101.458 8.934C101.674 8.754 101.866 8.514 102.034 8.214L102.232 9.96C102.052 10.164 101.836 10.35 101.584 10.518C101.332 10.674 101.05 10.794 100.738 10.878C100.438 10.962 100.114 11.004 99.766 11.004C99.286 11.004 98.836 10.926 98.416 10.77C97.996 10.602 97.63 10.362 97.318 10.05C97.006 9.726 96.76 9.348 96.58 8.916C96.412 8.472 96.328 7.98 96.328 7.44C96.328 6.888 96.424 6.384 96.616 5.928C96.808 5.46 97.066 5.058 97.39 4.722C97.726 4.374 98.116 4.104 98.56 3.912C99.016 3.72 99.496 3.624 100 3.624C100.792 3.624 101.452 3.828 101.98 4.236C102.508 4.632 102.904 5.22 103.168 6C103.444 6.768 103.582 7.71 103.582 8.826C103.582 10.206 103.42 11.37 103.096 12.318C102.784 13.254 102.328 13.968 101.728 14.46C101.128 14.94 100.396 15.186 99.532 15.198Z" fill="black"/>
<path d="M13.912 32.656C14.5307 32.0587 15.08 31.5307 15.56 31.072C16.04 30.6027 16.456 30.1813 16.808 29.808C17.1707 29.424 17.4693 29.0667 17.704 28.736C17.9493 28.4053 18.1307 28.0853 18.248 27.776C18.3653 27.456 18.424 27.12 18.424 26.768C18.424 26.5333 18.392 26.3307 18.328 26.16C18.2747 25.9893 18.184 25.8507 18.056 25.744C17.9387 25.6267 17.7893 25.5413 17.608 25.488C17.4373 25.424 17.24 25.392 17.016 25.392C16.792 25.392 16.5787 25.4187 16.376 25.472C16.184 25.5253 15.9973 25.6053 15.816 25.712C15.6453 25.8187 15.4853 25.9627 15.336 26.144C15.24 26.2827 15.176 26.3947 15.144 26.48C15.1227 26.5547 15.1173 26.6347 15.128 26.72L15.032 26.832L14.92 26.752L13.672 25.792C13.9173 25.376 14.2107 25.0293 14.552 24.752C14.904 24.4747 15.288 24.2613 15.704 24.112C16.1307 23.9627 16.5733 23.888 17.032 23.888C17.608 23.888 18.1307 24.0053 18.6 24.24C19.0693 24.4747 19.4427 24.8107 19.72 25.248C19.9973 25.6747 20.136 26.1813 20.136 26.768C20.136 27.184 20.072 27.5787 19.944 27.952C19.8267 28.3147 19.656 28.672 19.432 29.024C19.2187 29.3653 18.952 29.7173 18.632 30.08C18.312 30.4427 17.9547 30.8267 17.56 31.232C17.1653 31.6267 16.7387 32.0587 16.28 32.528H19.432C19.6133 32.528 19.7413 32.5173 19.816 32.496C19.8907 32.4747 19.96 32.432 20.024 32.368H20.168V32.528V34H13.912V32.656ZM23.4 34.688L21.736 33.968L26.664 23.328L28.296 24.16L23.4 34.688ZM33.032 34.192C32.3387 34.192 31.7093 34.0587 31.144 33.792C30.5893 33.5253 30.1627 33.1307 29.864 32.608L31.128 31.568L31.256 31.472L31.336 31.584C31.336 31.6693 31.352 31.7493 31.384 31.824C31.416 31.8987 31.4853 32.0053 31.592 32.144C31.784 32.336 31.9973 32.48 32.232 32.576C32.4667 32.672 32.728 32.72 33.016 32.72C33.2507 32.72 33.4693 32.6773 33.672 32.592C33.8747 32.496 34.0453 32.3627 34.184 32.192C34.3333 32.0213 34.4507 31.8187 34.536 31.584C34.6213 31.3493 34.664 31.0987 34.664 30.832C34.664 30.5333 34.6213 30.2667 34.536 30.032C34.4613 29.7867 34.3493 29.5787 34.2 29.408C34.0613 29.2267 33.8853 29.088 33.672 28.992C33.4693 28.896 33.2347 28.848 32.968 28.848C32.7653 28.848 32.5627 28.88 32.36 28.944C32.1573 28.9973 31.9707 29.0827 31.8 29.2C31.64 29.3067 31.4907 29.4507 31.352 29.632L30.248 29.344L30.616 24.032H35.944V25.488H32.12L31.976 27.744C32.104 27.68 32.248 27.6213 32.408 27.568C32.568 27.504 32.7333 27.4613 32.904 27.44C33.0747 27.408 33.2347 27.392 33.384 27.392C33.832 27.392 34.2373 27.4667 34.6 27.616C34.9627 27.7547 35.2773 27.968 35.544 28.256C35.8107 28.5333 36.0133 28.88 36.152 29.296C36.3013 29.712 36.376 30.1813 36.376 30.704C36.376 31.4187 36.2267 32.0373 35.928 32.56C35.64 33.0827 35.2453 33.488 34.744 33.776C34.2533 34.0533 33.6827 34.192 33.032 34.192ZM48.168 34.192C47.3467 34.192 46.7067 34 46.248 33.616C45.8 33.2213 45.576 32.7147 45.576 32.096C45.576 31.7013 45.6613 31.3387 45.832 31.008C46.0133 30.6667 46.28 30.3733 46.632 30.128C46.984 29.8827 47.4213 29.696 47.944 29.568C48.4667 29.4293 49.064 29.36 49.736 29.36C49.8213 29.36 49.928 29.36 50.056 29.36C50.184 29.36 50.3227 29.3653 50.472 29.376C50.6213 29.376 50.76 29.3867 50.888 29.408L50.936 30.656C50.8293 30.6453 50.7013 30.64 50.552 30.64C50.4027 30.6293 50.248 30.624 50.088 30.624C49.9387 30.6133 49.8107 30.608 49.704 30.608C49.2773 30.608 48.9147 30.64 48.616 30.704C48.328 30.768 48.0933 30.8587 47.912 30.976C47.7307 31.0827 47.5973 31.216 47.512 31.376C47.4267 31.5253 47.384 31.6907 47.384 31.872C47.384 32.0427 47.4107 32.1867 47.464 32.304C47.528 32.4213 47.608 32.5173 47.704 32.592C47.8107 32.656 47.9333 32.704 48.072 32.736C48.2107 32.768 48.36 32.784 48.52 32.784C48.84 32.784 49.1173 32.736 49.352 32.64C49.5973 32.5333 49.8 32.368 49.96 32.144C50.1307 31.92 50.2533 31.6427 50.328 31.312C50.4133 30.9707 50.456 30.5707 50.456 30.112C50.456 29.4933 50.392 29.0187 50.264 28.688C50.136 28.3573 49.9493 28.128 49.704 28C49.4587 27.8613 49.1493 27.792 48.776 27.792C48.4347 27.792 48.1093 27.8507 47.8 27.968C47.5013 28.0747 47.208 28.2773 46.92 28.576L45.928 27.488C46.344 27.0933 46.808 26.8107 47.32 26.64C47.832 26.4693 48.344 26.384 48.856 26.384C49.3253 26.384 49.7627 26.4373 50.168 26.544C50.5733 26.6507 50.9253 26.832 51.224 27.088C51.5333 27.3333 51.7733 27.6747 51.944 28.112C52.1253 28.5387 52.216 29.072 52.216 29.712V34H50.344V33.2C50.2053 33.3813 50.056 33.536 49.896 33.664C49.736 33.792 49.5653 33.8933 49.384 33.968C49.2027 34.0427 49.0107 34.096 48.808 34.128C48.6053 34.1707 48.392 34.192 48.168 34.192ZM57.784 34.16C57.3573 34.16 56.984 34.0907 56.664 33.952C56.3547 33.8133 56.0933 33.5893 55.88 33.28C55.6773 32.9707 55.528 32.56 55.432 32.048C55.3467 31.536 55.32 30.9013 55.352 30.144L55.56 24.8L57.432 24.56L57.576 24.544L57.592 24.688C57.5493 24.7627 57.5067 24.8373 57.464 24.912C57.4213 24.9867 57.3947 25.1147 57.384 25.296L57.208 27.504L57.288 27.616L57.16 30.112C57.128 30.8053 57.1493 31.344 57.224 31.728C57.3093 32.1013 57.432 32.3573 57.592 32.496C57.7627 32.6347 57.9653 32.704 58.2 32.704C58.5413 32.704 58.8453 32.6347 59.112 32.496C59.3893 32.3573 59.6453 32.1973 59.88 32.016L60.264 33.328C59.9013 33.5947 59.512 33.8027 59.096 33.952C58.6907 34.0907 58.2533 34.16 57.784 34.16ZM53.944 26.56H59.672L59.656 27.984H53.912L53.944 26.56ZM73.032 34.192C72.3387 34.192 71.7093 34.0587 71.144 33.792C70.5893 33.5253 70.1627 33.1307 69.864 32.608L71.128 31.568L71.256 31.472L71.336 31.584C71.336 31.6693 71.352 31.7493 71.384 31.824C71.416 31.8987 71.4853 32.0053 71.592 32.144C71.784 32.336 71.9973 32.48 72.232 32.576C72.4667 32.672 72.728 32.72 73.016 32.72C73.2507 32.72 73.4693 32.6773 73.672 32.592C73.8747 32.496 74.0453 32.3627 74.184 32.192C74.3333 32.0213 74.4507 31.8187 74.536 31.584C74.6213 31.3493 74.664 31.0987 74.664 30.832C74.664 30.5333 74.6213 30.2667 74.536 30.032C74.4613 29.7867 74.3493 29.5787 74.2 29.408C74.0613 29.2267 73.8853 29.088 73.672 28.992C73.4693 28.896 73.2347 28.848 72.968 28.848C72.7653 28.848 72.5627 28.88 72.36 28.944C72.1573 28.9973 71.9707 29.0827 71.8 29.2C71.64 29.3067 71.4907 29.4507 71.352 29.632L70.248 29.344L70.616 24.032H75.944V25.488H72.12L71.976 27.744C72.104 27.68 72.248 27.6213 72.408 27.568C72.568 27.504 72.7333 27.4613 72.904 27.44C73.0747 27.408 73.2347 27.392 73.384 27.392C73.832 27.392 74.2373 27.4667 74.6 27.616C74.9627 27.7547 75.2773 27.968 75.544 28.256C75.8107 28.5333 76.0133 28.88 76.152 29.296C76.3013 29.712 76.376 30.1813 76.376 30.704C76.376 31.4187 76.2267 32.0373 75.928 32.56C75.64 33.0827 75.2453 33.488 74.744 33.776C74.2533 34.0533 73.6827 34.192 73.032 34.192ZM80.76 29.344C80.4293 29.344 80.1467 29.2213 79.912 28.976C79.6773 28.7307 79.56 28.4533 79.56 28.144C79.56 27.824 79.6773 27.5413 79.912 27.296C80.1467 27.0507 80.4293 26.928 80.76 26.928C81.0693 26.928 81.3467 27.0453 81.592 27.28C81.848 27.5147 81.976 27.8027 81.976 28.144C81.976 28.4533 81.8587 28.7307 81.624 28.976C81.3893 29.2213 81.1013 29.344 80.76 29.344ZM80.76 34.192C80.4187 34.192 80.1307 34.0747 79.896 33.84C79.672 33.5947 79.56 33.312 79.56 32.992C79.56 32.672 79.6773 32.3893 79.912 32.144C80.1467 31.888 80.4293 31.76 80.76 31.76C81.0693 31.76 81.3467 31.8827 81.592 32.128C81.848 32.3627 81.976 32.6507 81.976 32.992C81.976 33.3013 81.8587 33.5787 81.624 33.824C81.4 34.0693 81.112 34.192 80.76 34.192ZM88.76 34.192C88.1733 34.192 87.6027 34.096 87.048 33.904C86.4933 33.7013 86.0453 33.3973 85.704 32.992L86.616 31.664L86.712 31.536L86.84 31.616C86.8613 31.7013 86.8827 31.7867 86.904 31.872C86.936 31.9573 87.016 32.064 87.144 32.192C87.336 32.3627 87.56 32.5013 87.816 32.608C88.0827 32.704 88.3707 32.752 88.68 32.752C89.0213 32.752 89.3093 32.688 89.544 32.56C89.7787 32.4213 89.9547 32.2347 90.072 32C90.2 31.7547 90.264 31.4773 90.264 31.168C90.264 30.8373 90.2053 30.56 90.088 30.336C89.9813 30.1013 89.816 29.92 89.592 29.792C89.3787 29.664 89.1067 29.5787 88.776 29.536C88.456 29.4933 88.0773 29.4987 87.64 29.552V28.144C88.1093 28.1547 88.4987 28.1227 88.808 28.048C89.1173 27.9733 89.3627 27.8667 89.544 27.728C89.7253 27.5893 89.8533 27.4293 89.928 27.248C90.0027 27.056 90.04 26.8587 90.04 26.656C90.04 26.4533 90.008 26.2773 89.944 26.128C89.88 25.968 89.7893 25.8347 89.672 25.728C89.5653 25.6107 89.4267 25.5253 89.256 25.472C89.096 25.408 88.9147 25.376 88.712 25.376C88.4987 25.376 88.2853 25.4027 88.072 25.456C87.8693 25.5093 87.672 25.5947 87.48 25.712C87.2987 25.8187 87.128 25.9627 86.968 26.144L85.928 25.088C86.312 24.6613 86.7547 24.3573 87.256 24.176C87.768 23.984 88.2747 23.888 88.776 23.888C89.3627 23.888 89.88 24 90.328 24.224C90.7867 24.448 91.144 24.752 91.4 25.136C91.656 25.52 91.784 25.9627 91.784 26.464C91.784 26.8267 91.7093 27.1573 91.56 27.456C91.4213 27.7547 91.2293 28.0107 90.984 28.224C90.7493 28.4267 90.4987 28.5867 90.232 28.704C90.5413 28.8107 90.8347 28.9707 91.112 29.184C91.4 29.3973 91.6293 29.6747 91.8 30.016C91.9813 30.3467 92.072 30.752 92.072 31.232C92.072 31.776 91.9387 32.272 91.672 32.72C91.4053 33.168 91.0267 33.5253 90.536 33.792C90.0453 34.0587 89.4533 34.192 88.76 34.192ZM97.032 34.192C96.3387 34.192 95.7093 34.0587 95.144 33.792C94.5893 33.5253 94.1627 33.1307 93.864 32.608L95.128 31.568L95.256 31.472L95.336 31.584C95.336 31.6693 95.352 31.7493 95.384 31.824C95.416 31.8987 95.4853 32.0053 95.592 32.144C95.784 32.336 95.9973 32.48 96.232 32.576C96.4667 32.672 96.728 32.72 97.016 32.72C97.2507 32.72 97.4693 32.6773 97.672 32.592C97.8747 32.496 98.0453 32.3627 98.184 32.192C98.3333 32.0213 98.4507 31.8187 98.536 31.584C98.6213 31.3493 98.664 31.0987 98.664 30.832C98.664 30.5333 98.6213 30.2667 98.536 30.032C98.4613 29.7867 98.3493 29.5787 98.2 29.408C98.0613 29.2267 97.8853 29.088 97.672 28.992C97.4693 28.896 97.2347 28.848 96.968 28.848C96.7653 28.848 96.5627 28.88 96.36 28.944C96.1573 28.9973 95.9707 29.0827 95.8 29.2C95.64 29.3067 95.4907 29.4507 95.352 29.632L94.248 29.344L94.616 24.032H99.944V25.488H96.12L95.976 27.744C96.104 27.68 96.248 27.6213 96.408 27.568C96.568 27.504 96.7333 27.4613 96.904 27.44C97.0747 27.408 97.2347 27.392 97.384 27.392C97.832 27.392 98.2373 27.4667 98.6 27.616C98.9627 27.7547 99.2773 27.968 99.544 28.256C99.8107 28.5333 100.013 28.88 100.152 29.296C100.301 29.712 100.376 30.1813 100.376 30.704C100.376 31.4187 100.227 32.0373 99.928 32.56C99.64 33.0827 99.2453 33.488 98.744 33.776C98.2533 34.0533 97.6827 34.192 97.032 34.192ZM109.768 34V24.032H113.16C113.939 24.032 114.573 24.1653 115.064 24.432C115.565 24.6987 115.933 25.0507 116.168 25.488C116.413 25.9253 116.536 26.416 116.536 26.96C116.536 27.3547 116.467 27.728 116.328 28.08C116.2 28.4213 115.997 28.7253 115.72 28.992C115.453 29.248 115.112 29.4507 114.696 29.6C114.291 29.7493 113.805 29.824 113.24 29.824H111.608V34H109.768ZM111.608 28.32H113.112C113.453 28.32 113.741 28.2613 113.976 28.144C114.211 28.0267 114.387 27.8667 114.504 27.664C114.621 27.4613 114.68 27.2267 114.68 26.96C114.68 26.6933 114.621 26.4587 114.504 26.256C114.387 26.0533 114.211 25.8933 113.976 25.776C113.752 25.6587 113.469 25.6 113.128 25.6H111.608V28.32ZM117.512 34V24.032H119.096L121.032 28.608L122.968 24.016H124.552V34H122.984V27.04L121.416 30.704H120.536L119.064 27.056V34H117.512Z" fill="black"/>
</svg>
