<svg width="138" height="123" viewBox="0 0 138 123" fill="none" xmlns="http://www.w3.org/2000/svg">
<path d="M37 15.234C35.764 15.234 34.81 14.868 34.138 14.136C33.478 13.392 33.148 12.372 33.148 11.076V3.786H35.164H35.326V3.948C35.266 4.02 35.224 4.098 35.2 4.182C35.188 4.266 35.182 4.41 35.182 4.614V11.094C35.182 11.862 35.314 12.468 35.578 12.912C35.854 13.356 36.334 13.578 37.018 13.578C37.714 13.578 38.2 13.356 38.476 12.912C38.752 12.456 38.89 11.832 38.89 11.04V3.786H40.87V11.022C40.87 11.982 40.708 12.774 40.384 13.398C40.06 14.022 39.604 14.484 39.016 14.784C38.44 15.084 37.768 15.234 37 15.234ZM42.166 3.786H44.29L48.088 11.166L47.98 3.786H49.798H49.96V3.948C49.9 4.02 49.858 4.098 49.834 4.182C49.822 4.266 49.816 4.41 49.816 4.614V15H47.926L44.002 7.134V15H42.166V3.786ZM51.76 15V13.362H53.956V5.424H51.886V3.786H58.078V5.424H55.882V13.362H58.168V15H51.76ZM62.938 15V5.496H59.914V3.786H68.068V5.496H64.882V15H62.938ZM81.73 15.216C81.07 15.216 80.428 15.108 79.804 14.892C79.18 14.664 78.676 14.322 78.292 13.866L79.318 12.372L79.426 12.228L79.57 12.318C79.594 12.414 79.618 12.51 79.642 12.606C79.678 12.702 79.768 12.822 79.912 12.966C80.128 13.158 80.38 13.314 80.668 13.434C80.968 13.542 81.292 13.596 81.64 13.596C82.024 13.596 82.348 13.524 82.612 13.38C82.876 13.224 83.074 13.014 83.206 12.75C83.35 12.474 83.422 12.162 83.422 11.814C83.422 11.442 83.356 11.13 83.224 10.878C83.104 10.614 82.918 10.41 82.666 10.266C82.426 10.122 82.12 10.026 81.748 9.978C81.388 9.93 80.962 9.936 80.47 9.996V8.412C80.998 8.424 81.436 8.388 81.784 8.304C82.132 8.22 82.408 8.1 82.612 7.944C82.816 7.788 82.96 7.608 83.044 7.404C83.128 7.188 83.17 6.966 83.17 6.738C83.17 6.51 83.134 6.312 83.062 6.144C82.99 5.964 82.888 5.814 82.756 5.694C82.636 5.562 82.48 5.466 82.288 5.406C82.108 5.334 81.904 5.298 81.676 5.298C81.436 5.298 81.196 5.328 80.956 5.388C80.728 5.448 80.506 5.544 80.29 5.676C80.086 5.796 79.894 5.958 79.714 6.162L78.544 4.974C78.976 4.494 79.474 4.152 80.038 3.948C80.614 3.732 81.184 3.624 81.748 3.624C82.408 3.624 82.99 3.75 83.494 4.002C84.01 4.254 84.412 4.596 84.7 5.028C84.988 5.46 85.132 5.958 85.132 6.522C85.132 6.93 85.048 7.302 84.88 7.638C84.724 7.974 84.508 8.262 84.232 8.502C83.968 8.73 83.686 8.91 83.386 9.042C83.734 9.162 84.064 9.342 84.376 9.582C84.7 9.822 84.958 10.134 85.15 10.518C85.354 10.89 85.456 11.346 85.456 11.886C85.456 12.498 85.306 13.056 85.006 13.56C84.706 14.064 84.28 14.466 83.728 14.766C83.176 15.066 82.51 15.216 81.73 15.216ZM88.732 15C89.092 13.908 89.452 12.84 89.812 11.796C90.184 10.752 90.568 9.708 90.964 8.664C91.36 7.62 91.768 6.576 92.188 5.532H87.67V3.786H94.474V4.902C94.138 5.718 93.802 6.54 93.466 7.368C93.142 8.184 92.83 9.012 92.53 9.852C92.23 10.68 91.936 11.526 91.648 12.39C91.372 13.242 91.102 14.112 90.838 15H88.732ZM99.532 15.198C98.968 15.198 98.422 15.126 97.894 14.982C97.366 14.826 96.886 14.562 96.454 14.19L97.498 12.696L97.588 12.552L97.732 12.642C97.756 12.738 97.792 12.828 97.84 12.912C97.9 12.984 98.002 13.086 98.146 13.218C98.35 13.326 98.554 13.41 98.758 13.47C98.974 13.518 99.208 13.542 99.46 13.542C99.808 13.542 100.114 13.446 100.378 13.254C100.654 13.062 100.888 12.78 101.08 12.408C101.272 12.036 101.422 11.604 101.53 11.112C101.638 10.62 101.692 10.074 101.692 9.474C101.716 8.442 101.662 7.62 101.53 7.008C101.398 6.384 101.2 5.934 100.936 5.658C100.684 5.382 100.348 5.244 99.928 5.244C99.676 5.244 99.442 5.298 99.226 5.406C99.022 5.502 98.842 5.652 98.686 5.856C98.542 6.048 98.428 6.282 98.344 6.558C98.272 6.834 98.236 7.146 98.236 7.494C98.236 7.806 98.278 8.082 98.362 8.322C98.458 8.55 98.584 8.748 98.74 8.916C98.896 9.072 99.076 9.192 99.28 9.276C99.484 9.36 99.7 9.402 99.928 9.402C100.24 9.402 100.522 9.366 100.774 9.294C101.026 9.222 101.254 9.102 101.458 8.934C101.674 8.754 101.866 8.514 102.034 8.214L102.232 9.96C102.052 10.164 101.836 10.35 101.584 10.518C101.332 10.674 101.05 10.794 100.738 10.878C100.438 10.962 100.114 11.004 99.766 11.004C99.286 11.004 98.836 10.926 98.416 10.77C97.996 10.602 97.63 10.362 97.318 10.05C97.006 9.726 96.76 9.348 96.58 8.916C96.412 8.472 96.328 7.98 96.328 7.44C96.328 6.888 96.424 6.384 96.616 5.928C96.808 5.46 97.066 5.058 97.39 4.722C97.726 4.374 98.116 4.104 98.56 3.912C99.016 3.72 99.496 3.624 100 3.624C100.792 3.624 101.452 3.828 101.98 4.236C102.508 4.632 102.904 5.22 103.168 6C103.444 6.768 103.582 7.71 103.582 8.826C103.582 10.206 103.42 11.37 103.096 12.318C102.784 13.254 102.328 13.968 101.728 14.46C101.128 14.94 100.396 15.186 99.532 15.198Z" fill="black"/>
<path d="M9.912 32.656C10.5307 32.0587 11.08 31.5307 11.56 31.072C12.04 30.6027 12.456 30.1813 12.808 29.808C13.1707 29.424 13.4693 29.0667 13.704 28.736C13.9493 28.4053 14.1307 28.0853 14.248 27.776C14.3653 27.456 14.424 27.12 14.424 26.768C14.424 26.5333 14.392 26.3307 14.328 26.16C14.2747 25.9893 14.184 25.8507 14.056 25.744C13.9387 25.6267 13.7893 25.5413 13.608 25.488C13.4373 25.424 13.24 25.392 13.016 25.392C12.792 25.392 12.5787 25.4187 12.376 25.472C12.184 25.5253 11.9973 25.6053 11.816 25.712C11.6453 25.8187 11.4853 25.9627 11.336 26.144C11.24 26.2827 11.176 26.3947 11.144 26.48C11.1227 26.5547 11.1173 26.6347 11.128 26.72L11.032 26.832L10.92 26.752L9.672 25.792C9.91733 25.376 10.2107 25.0293 10.552 24.752C10.904 24.4747 11.288 24.2613 11.704 24.112C12.1307 23.9627 12.5733 23.888 13.032 23.888C13.608 23.888 14.1307 24.0053 14.6 24.24C15.0693 24.4747 15.4427 24.8107 15.72 25.248C15.9973 25.6747 16.136 26.1813 16.136 26.768C16.136 27.184 16.072 27.5787 15.944 27.952C15.8267 28.3147 15.656 28.672 15.432 29.024C15.2187 29.3653 14.952 29.7173 14.632 30.08C14.312 30.4427 13.9547 30.8267 13.56 31.232C13.1653 31.6267 12.7387 32.0587 12.28 32.528H15.432C15.6133 32.528 15.7413 32.5173 15.816 32.496C15.8907 32.4747 15.96 32.432 16.024 32.368H16.168V32.528V34H9.912V32.656ZM19.4 34.688L17.736 33.968L22.664 23.328L24.296 24.16L19.4 34.688ZM29.032 34.192C28.3387 34.192 27.7093 34.0587 27.144 33.792C26.5893 33.5253 26.1627 33.1307 25.864 32.608L27.128 31.568L27.256 31.472L27.336 31.584C27.336 31.6693 27.352 31.7493 27.384 31.824C27.416 31.8987 27.4853 32.0053 27.592 32.144C27.784 32.336 27.9973 32.48 28.232 32.576C28.4667 32.672 28.728 32.72 29.016 32.72C29.2507 32.72 29.4693 32.6773 29.672 32.592C29.8747 32.496 30.0453 32.3627 30.184 32.192C30.3333 32.0213 30.4507 31.8187 30.536 31.584C30.6213 31.3493 30.664 31.0987 30.664 30.832C30.664 30.5333 30.6213 30.2667 30.536 30.032C30.4613 29.7867 30.3493 29.5787 30.2 29.408C30.0613 29.2267 29.8853 29.088 29.672 28.992C29.4693 28.896 29.2347 28.848 28.968 28.848C28.7653 28.848 28.5627 28.88 28.36 28.944C28.1573 28.9973 27.9707 29.0827 27.8 29.2C27.64 29.3067 27.4907 29.4507 27.352 29.632L26.248 29.344L26.616 24.032H31.944V25.488H28.12L27.976 27.744C28.104 27.68 28.248 27.6213 28.408 27.568C28.568 27.504 28.7333 27.4613 28.904 27.44C29.0747 27.408 29.2347 27.392 29.384 27.392C29.832 27.392 30.2373 27.4667 30.6 27.616C30.9627 27.7547 31.2773 27.968 31.544 28.256C31.8107 28.5333 32.0133 28.88 32.152 29.296C32.3013 29.712 32.376 30.1813 32.376 30.704C32.376 31.4187 32.2267 32.0373 31.928 32.56C31.64 33.0827 31.2453 33.488 30.744 33.776C30.2533 34.0533 29.6827 34.192 29.032 34.192ZM44.168 34.192C43.3467 34.192 42.7067 34 42.248 33.616C41.8 33.2213 41.576 32.7147 41.576 32.096C41.576 31.7013 41.6613 31.3387 41.832 31.008C42.0133 30.6667 42.28 30.3733 42.632 30.128C42.984 29.8827 43.4213 29.696 43.944 29.568C44.4667 29.4293 45.064 29.36 45.736 29.36C45.8213 29.36 45.928 29.36 46.056 29.36C46.184 29.36 46.3227 29.3653 46.472 29.376C46.6213 29.376 46.76 29.3867 46.888 29.408L46.936 30.656C46.8293 30.6453 46.7013 30.64 46.552 30.64C46.4027 30.6293 46.248 30.624 46.088 30.624C45.9387 30.6133 45.8107 30.608 45.704 30.608C45.2773 30.608 44.9147 30.64 44.616 30.704C44.328 30.768 44.0933 30.8587 43.912 30.976C43.7307 31.0827 43.5973 31.216 43.512 31.376C43.4267 31.5253 43.384 31.6907 43.384 31.872C43.384 32.0427 43.4107 32.1867 43.464 32.304C43.528 32.4213 43.608 32.5173 43.704 32.592C43.8107 32.656 43.9333 32.704 44.072 32.736C44.2107 32.768 44.36 32.784 44.52 32.784C44.84 32.784 45.1173 32.736 45.352 32.64C45.5973 32.5333 45.8 32.368 45.96 32.144C46.1307 31.92 46.2533 31.6427 46.328 31.312C46.4133 30.9707 46.456 30.5707 46.456 30.112C46.456 29.4933 46.392 29.0187 46.264 28.688C46.136 28.3573 45.9493 28.128 45.704 28C45.4587 27.8613 45.1493 27.792 44.776 27.792C44.4347 27.792 44.1093 27.8507 43.8 27.968C43.5013 28.0747 43.208 28.2773 42.92 28.576L41.928 27.488C42.344 27.0933 42.808 26.8107 43.32 26.64C43.832 26.4693 44.344 26.384 44.856 26.384C45.3253 26.384 45.7627 26.4373 46.168 26.544C46.5733 26.6507 46.9253 26.832 47.224 27.088C47.5333 27.3333 47.7733 27.6747 47.944 28.112C48.1253 28.5387 48.216 29.072 48.216 29.712V34H46.344V33.2C46.2053 33.3813 46.056 33.536 45.896 33.664C45.736 33.792 45.5653 33.8933 45.384 33.968C45.2027 34.0427 45.0107 34.096 44.808 34.128C44.6053 34.1707 44.392 34.192 44.168 34.192ZM53.784 34.16C53.3573 34.16 52.984 34.0907 52.664 33.952C52.3547 33.8133 52.0933 33.5893 51.88 33.28C51.6773 32.9707 51.528 32.56 51.432 32.048C51.3467 31.536 51.32 30.9013 51.352 30.144L51.56 24.8L53.432 24.56L53.576 24.544L53.592 24.688C53.5493 24.7627 53.5067 24.8373 53.464 24.912C53.4213 24.9867 53.3947 25.1147 53.384 25.296L53.208 27.504L53.288 27.616L53.16 30.112C53.128 30.8053 53.1493 31.344 53.224 31.728C53.3093 32.1013 53.432 32.3573 53.592 32.496C53.7627 32.6347 53.9653 32.704 54.2 32.704C54.5413 32.704 54.8453 32.6347 55.112 32.496C55.3893 32.3573 55.6453 32.1973 55.88 32.016L56.264 33.328C55.9013 33.5947 55.512 33.8027 55.096 33.952C54.6907 34.0907 54.2533 34.16 53.784 34.16ZM49.944 26.56H55.672L55.656 27.984H49.912L49.944 26.56ZM68.328 34V26L66.52 26.64L66.136 25.44L68.792 24.032H70.136V34H68.328ZM73.912 32.656C74.5307 32.0587 75.08 31.5307 75.56 31.072C76.04 30.6027 76.456 30.1813 76.808 29.808C77.1707 29.424 77.4693 29.0667 77.704 28.736C77.9493 28.4053 78.1307 28.0853 78.248 27.776C78.3653 27.456 78.424 27.12 78.424 26.768C78.424 26.5333 78.392 26.3307 78.328 26.16C78.2747 25.9893 78.184 25.8507 78.056 25.744C77.9387 25.6267 77.7893 25.5413 77.608 25.488C77.4373 25.424 77.24 25.392 77.016 25.392C76.792 25.392 76.5787 25.4187 76.376 25.472C76.184 25.5253 75.9973 25.6053 75.816 25.712C75.6453 25.8187 75.4853 25.9627 75.336 26.144C75.24 26.2827 75.176 26.3947 75.144 26.48C75.1227 26.5547 75.1173 26.6347 75.128 26.72L75.032 26.832L74.92 26.752L73.672 25.792C73.9173 25.376 74.2107 25.0293 74.552 24.752C74.904 24.4747 75.288 24.2613 75.704 24.112C76.1307 23.9627 76.5733 23.888 77.032 23.888C77.608 23.888 78.1307 24.0053 78.6 24.24C79.0693 24.4747 79.4427 24.8107 79.72 25.248C79.9973 25.6747 80.136 26.1813 80.136 26.768C80.136 27.184 80.072 27.5787 79.944 27.952C79.8267 28.3147 79.656 28.672 79.432 29.024C79.2187 29.3653 78.952 29.7173 78.632 30.08C78.312 30.4427 77.9547 30.8267 77.56 31.232C77.1653 31.6267 76.7387 32.0587 76.28 32.528H79.432C79.6133 32.528 79.7413 32.5173 79.816 32.496C79.8907 32.4747 79.96 32.432 80.024 32.368H80.168V32.528V34H73.912V32.656ZM84.76 29.344C84.4293 29.344 84.1467 29.2213 83.912 28.976C83.6773 28.7307 83.56 28.4533 83.56 28.144C83.56 27.824 83.6773 27.5413 83.912 27.296C84.1467 27.0507 84.4293 26.928 84.76 26.928C85.0693 26.928 85.3467 27.0453 85.592 27.28C85.848 27.5147 85.976 27.8027 85.976 28.144C85.976 28.4533 85.8587 28.7307 85.624 28.976C85.3893 29.2213 85.1013 29.344 84.76 29.344ZM84.76 34.192C84.4187 34.192 84.1307 34.0747 83.896 33.84C83.672 33.5947 83.56 33.312 83.56 32.992C83.56 32.672 83.6773 32.3893 83.912 32.144C84.1467 31.888 84.4293 31.76 84.76 31.76C85.0693 31.76 85.3467 31.8827 85.592 32.128C85.848 32.3627 85.976 32.6507 85.976 32.992C85.976 33.3013 85.8587 33.5787 85.624 33.824C85.4 34.0693 85.112 34.192 84.76 34.192ZM92.76 34.192C92.1733 34.192 91.6027 34.096 91.048 33.904C90.4933 33.7013 90.0453 33.3973 89.704 32.992L90.616 31.664L90.712 31.536L90.84 31.616C90.8613 31.7013 90.8827 31.7867 90.904 31.872C90.936 31.9573 91.016 32.064 91.144 32.192C91.336 32.3627 91.56 32.5013 91.816 32.608C92.0827 32.704 92.3707 32.752 92.68 32.752C93.0213 32.752 93.3093 32.688 93.544 32.56C93.7787 32.4213 93.9547 32.2347 94.072 32C94.2 31.7547 94.264 31.4773 94.264 31.168C94.264 30.8373 94.2053 30.56 94.088 30.336C93.9813 30.1013 93.816 29.92 93.592 29.792C93.3787 29.664 93.1067 29.5787 92.776 29.536C92.456 29.4933 92.0773 29.4987 91.64 29.552V28.144C92.1093 28.1547 92.4987 28.1227 92.808 28.048C93.1173 27.9733 93.3627 27.8667 93.544 27.728C93.7253 27.5893 93.8533 27.4293 93.928 27.248C94.0027 27.056 94.04 26.8587 94.04 26.656C94.04 26.4533 94.008 26.2773 93.944 26.128C93.88 25.968 93.7893 25.8347 93.672 25.728C93.5653 25.6107 93.4267 25.5253 93.256 25.472C93.096 25.408 92.9147 25.376 92.712 25.376C92.4987 25.376 92.2853 25.4027 92.072 25.456C91.8693 25.5093 91.672 25.5947 91.48 25.712C91.2987 25.8187 91.128 25.9627 90.968 26.144L89.928 25.088C90.312 24.6613 90.7547 24.3573 91.256 24.176C91.768 23.984 92.2747 23.888 92.776 23.888C93.3627 23.888 93.88 24 94.328 24.224C94.7867 24.448 95.144 24.752 95.4 25.136C95.656 25.52 95.784 25.9627 95.784 26.464C95.784 26.8267 95.7093 27.1573 95.56 27.456C95.4213 27.7547 95.2293 28.0107 94.984 28.224C94.7493 28.4267 94.4987 28.5867 94.232 28.704C94.5413 28.8107 94.8347 28.9707 95.112 29.184C95.4 29.3973 95.6293 29.6747 95.8 30.016C95.9813 30.3467 96.072 30.752 96.072 31.232C96.072 31.776 95.9387 32.272 95.672 32.72C95.4053 33.168 95.0267 33.5253 94.536 33.792C94.0453 34.0587 93.4533 34.192 92.76 34.192ZM101.032 34.192C100.339 34.192 99.7093 34.0587 99.144 33.792C98.5893 33.5253 98.1627 33.1307 97.864 32.608L99.128 31.568L99.256 31.472L99.336 31.584C99.336 31.6693 99.352 31.7493 99.384 31.824C99.416 31.8987 99.4853 32.0053 99.592 32.144C99.784 32.336 99.9973 32.48 100.232 32.576C100.467 32.672 100.728 32.72 101.016 32.72C101.251 32.72 101.469 32.6773 101.672 32.592C101.875 32.496 102.045 32.3627 102.184 32.192C102.333 32.0213 102.451 31.8187 102.536 31.584C102.621 31.3493 102.664 31.0987 102.664 30.832C102.664 30.5333 102.621 30.2667 102.536 30.032C102.461 29.7867 102.349 29.5787 102.2 29.408C102.061 29.2267 101.885 29.088 101.672 28.992C101.469 28.896 101.235 28.848 100.968 28.848C100.765 28.848 100.563 28.88 100.36 28.944C100.157 28.9973 99.9707 29.0827 99.8 29.2C99.64 29.3067 99.4907 29.4507 99.352 29.632L98.248 29.344L98.616 24.032H103.944V25.488H100.12L99.976 27.744C100.104 27.68 100.248 27.6213 100.408 27.568C100.568 27.504 100.733 27.4613 100.904 27.44C101.075 27.408 101.235 27.392 101.384 27.392C101.832 27.392 102.237 27.4667 102.6 27.616C102.963 27.7547 103.277 27.968 103.544 28.256C103.811 28.5333 104.013 28.88 104.152 29.296C104.301 29.712 104.376 30.1813 104.376 30.704C104.376 31.4187 104.227 32.0373 103.928 32.56C103.64 33.0827 103.245 33.488 102.744 33.776C102.253 34.0533 101.683 34.192 101.032 34.192ZM113.768 34V24.032H117.16C117.939 24.032 118.573 24.1653 119.064 24.432C119.565 24.6987 119.933 25.0507 120.168 25.488C120.413 25.9253 120.536 26.416 120.536 26.96C120.536 27.3547 120.467 27.728 120.328 28.08C120.2 28.4213 119.997 28.7253 119.72 28.992C119.453 29.248 119.112 29.4507 118.696 29.6C118.291 29.7493 117.805 29.824 117.24 29.824H115.608V34H113.768ZM115.608 28.32H117.112C117.453 28.32 117.741 28.2613 117.976 28.144C118.211 28.0267 118.387 27.8667 118.504 27.664C118.621 27.4613 118.68 27.2267 118.68 26.96C118.68 26.6933 118.621 26.4587 118.504 26.256C118.387 26.0533 118.211 25.8933 117.976 25.776C117.752 25.6587 117.469 25.6 117.128 25.6H115.608V28.32ZM121.512 34V24.032H123.096L125.032 28.608L126.968 24.016H128.552V34H126.984V27.04L125.416 30.704H124.536L123.064 27.056V34H121.512Z" fill="black"/>
<circle cx="73.5" cy="71.5" r="32.5" fill="#BB0A21"/>
<mask id="path-4-inside-1_16_158" fill="white">
<path fill-rule="evenodd" clip-rule="evenodd" d="M73.5 69.9523C68.0337 69.9523 63.6714 74.1576 63.6714 79.2627C63.6714 82.365 64.9624 85.0405 67.2653 86.7068C67.7728 87.0741 68.207 87.6218 68.3733 88.3166C68.5098 88.8869 68.666 89.5818 68.8207 90.3182H72.3206V88.643C72.3206 88.4222 72.3846 88.206 72.505 88.0197L73.7661 86.0706L70.9369 83.8841C70.46 83.5155 70.3448 82.8512 70.6705 82.3478L72.505 79.5119C72.8549 78.9711 73.584 78.8119 74.1334 79.1561C74.6829 79.5004 74.8447 80.218 74.495 80.7587L73.2339 82.7076L76.0631 84.8942C76.54 85.2627 76.6552 85.9271 76.3295 86.4304L74.6794 88.9812V90.3182H78.1792C78.334 89.5818 78.4901 88.8869 78.6266 88.3166C78.793 87.6218 79.2272 87.0741 79.7348 86.7068C82.0377 85.0405 83.3286 82.365 83.3286 79.2627C83.3286 74.1576 78.9663 69.9523 73.5 69.9523ZM77.7282 92.6396H69.2718C69.4454 93.6264 69.5816 94.5608 69.6229 95.2317C69.6663 95.9381 70.2027 96.571 70.9936 96.7393L71.3018 96.8049C72.7492 97.1125 74.2508 97.1125 75.6982 96.8049L76.0064 96.7393C76.7972 96.571 77.3338 95.9381 77.3772 95.2317C77.4184 94.5608 77.5546 93.6264 77.7282 92.6396ZM61.3125 79.2627C61.3125 72.8017 66.8072 67.6309 73.5 67.6309C80.1929 67.6309 85.6875 72.8017 85.6875 79.2627C85.6875 83.0139 84.1093 86.423 81.1321 88.5771C80.9962 88.6754 80.9394 88.7788 80.9227 88.8489C80.7365 89.6267 80.5098 90.6563 80.303 91.7008C80.0155 93.153 79.7815 94.5613 79.7317 95.3719C79.6216 97.1644 78.2816 98.6304 76.5046 99.0084L76.1963 99.0738C74.4206 99.4515 72.5794 99.4515 70.8037 99.0738L70.4954 99.0084C68.7184 98.6304 67.3785 97.1644 67.2683 95.3719C67.2185 94.5613 66.9845 93.153 66.697 91.7008C66.4902 90.6563 66.2635 89.6267 66.0773 88.8489C66.0605 88.7788 66.0037 88.6754 65.868 88.5771C62.8907 86.423 61.3125 83.0139 61.3125 79.2627Z"/>
</mask>
<path d="M67.2653 86.7068L64.9204 89.9474L64.9205 89.9475L67.2653 86.7068ZM68.3733 88.3166L72.2635 87.3857L72.2635 87.3856L68.3733 88.3166ZM68.8207 90.3182L64.9062 91.1407L65.5739 94.3182H68.8207V90.3182ZM72.3206 90.3182V94.3182H76.3206V90.3182H72.3206ZM72.505 88.0197L69.1467 85.8468L69.1459 85.848L72.505 88.0197ZM73.7661 86.0706L77.1244 88.2435L79.1227 85.155L76.212 82.9056L73.7661 86.0706ZM70.9369 83.8841L68.4902 87.0486L68.4909 87.0491L70.9369 83.8841ZM70.6705 82.3478L74.029 84.5204L74.029 84.5204L70.6705 82.3478ZM72.505 79.5119L69.1467 77.3389L69.1465 77.3392L72.505 79.5119ZM74.495 80.7587L77.8533 82.9317L77.8537 82.9311L74.495 80.7587ZM73.2339 82.7076L69.8756 80.5346L67.8773 83.623L70.7878 85.8725L73.2339 82.7076ZM76.0631 84.8942L73.6171 88.0592L73.6172 88.0592L76.0631 84.8942ZM76.3295 86.4304L72.9713 84.2573L72.971 84.2578L76.3295 86.4304ZM74.6794 88.9812L71.3209 86.8086L70.6794 87.8002V88.9812H74.6794ZM74.6794 90.3182H70.6794V94.3182H74.6794V90.3182ZM78.1792 90.3182V94.3182H81.426L82.0937 91.1408L78.1792 90.3182ZM78.6266 88.3166L74.7366 87.3852L74.7365 87.3856L78.6266 88.3166ZM79.7348 86.7068L82.0794 89.9476L82.0797 89.9474L79.7348 86.7068ZM77.7282 92.6396L81.6677 93.3327L82.4934 88.6396H77.7282V92.6396ZM69.2718 92.6396V88.6396H64.5065L65.3323 93.3328L69.2718 92.6396ZM69.6229 95.2317L73.6153 94.9863L73.6153 94.9862L69.6229 95.2317ZM70.9936 96.7393L71.8265 92.8269L71.8258 92.8268L70.9936 96.7393ZM71.3018 96.8049L70.4689 100.717L70.4702 100.717L71.3018 96.8049ZM75.6982 96.8049L76.5298 100.717L76.5311 100.717L75.6982 96.8049ZM76.0064 96.7393L75.1741 92.8268L75.1735 92.8269L76.0064 96.7393ZM77.3772 95.2317L81.3697 95.477L81.3697 95.4769L77.3772 95.2317ZM81.1321 88.5771L83.4763 91.8182L83.4768 91.8178L81.1321 88.5771ZM80.9227 88.8489L84.8128 89.7801L84.8142 89.7742L80.9227 88.8489ZM80.303 91.7008L76.3791 90.924L76.3791 90.924L80.303 91.7008ZM79.7317 95.3719L75.7392 95.1264L75.7392 95.1267L79.7317 95.3719ZM76.5046 99.0084L77.3356 102.921L77.3367 102.921L76.5046 99.0084ZM76.1963 99.0738L75.3653 95.1611L75.3643 95.1613L76.1963 99.0738ZM70.8037 99.0738L71.6357 95.1613L71.6347 95.1611L70.8037 99.0738ZM70.4954 99.0084L69.6633 102.921L69.6644 102.921L70.4954 99.0084ZM67.2683 95.3719L63.2758 95.6174L63.2758 95.6174L67.2683 95.3719ZM66.697 91.7008L70.6209 90.9241L70.6208 90.924L66.697 91.7008ZM66.0773 88.8489L62.1869 89.7791L62.1872 89.78L66.0773 88.8489ZM65.868 88.5771L68.2133 85.3368L68.2127 85.3364L65.868 88.5771ZM73.5 65.9523C66.0105 65.9523 59.6714 71.7669 59.6714 79.2627H67.6714C67.6714 76.5482 70.0568 73.9523 73.5 73.9523V65.9523ZM59.6714 79.2627C59.6714 83.5105 61.4712 87.4517 64.9204 89.9474L69.6101 83.4662C68.4535 82.6293 67.6714 81.2195 67.6714 79.2627H59.6714ZM64.9205 89.9475C64.8019 89.8617 64.5786 89.6466 64.4832 89.2476L72.2635 87.3856C71.8354 85.597 70.7437 84.2864 69.61 83.4661L64.9205 89.9475ZM64.4832 89.2476C64.6101 89.778 64.7582 90.4365 64.9062 91.1407L72.7353 89.4956C72.5738 88.7272 72.4095 87.9959 72.2635 87.3857L64.4832 89.2476ZM68.8207 94.3182H72.3206V86.3182H68.8207V94.3182ZM76.3206 90.3182V88.643H68.3206V90.3182H76.3206ZM76.3206 88.643C76.3206 89.197 76.1597 89.7342 75.8642 90.1913L69.1459 85.848C68.6095 86.6778 68.3206 87.6474 68.3206 88.643H76.3206ZM75.8634 90.1925L77.1244 88.2435L70.4077 83.8977L69.1467 85.8468L75.8634 90.1925ZM76.212 82.9056L73.3828 80.7191L68.4909 87.0491L71.3201 89.2356L76.212 82.9056ZM73.3835 80.7196C74.5371 81.6115 74.8424 83.263 74.029 84.5204L67.3119 80.1751C65.8471 82.4395 66.383 85.4194 68.4902 87.0486L73.3835 80.7196ZM74.029 84.5204L75.8635 81.6845L69.1465 77.3392L67.3119 80.1751L74.029 84.5204ZM75.8633 81.6849C75.012 83.0005 73.2919 83.3492 72.0096 82.5457L76.2573 75.7666C73.876 74.2745 70.6978 74.9418 69.1467 77.3389L75.8633 81.6849ZM72.0096 82.5457C70.6898 81.7188 70.2601 79.941 71.1363 78.5863L77.8537 82.9311C79.4294 80.4949 78.6759 77.2821 76.2573 75.7666L72.0096 82.5457ZM71.1367 78.5857L69.8756 80.5346L76.5922 84.8806L77.8533 82.9317L71.1367 78.5857ZM70.7878 85.8725L73.6171 88.0592L78.5092 81.7293L75.68 79.5427L70.7878 85.8725ZM73.6172 88.0592C72.4627 87.167 72.1574 85.515 72.9713 84.2573L79.6877 88.6035C81.153 86.3392 80.6172 83.3584 78.5091 81.7293L73.6172 88.0592ZM72.971 84.2578L71.3209 86.8086L78.038 91.1538L79.6881 88.603L72.971 84.2578ZM70.6794 88.9812V90.3182H78.6794V88.9812H70.6794ZM74.6794 94.3182H78.1792V86.3182H74.6794V94.3182ZM82.0937 91.1408C82.2418 90.4363 82.3899 89.7779 82.5167 89.2477L74.7365 87.3856C74.5904 87.996 74.4261 88.7274 74.2647 89.4956L82.0937 91.1408ZM82.5167 89.2481C82.4212 89.6466 82.1981 89.8618 82.0794 89.9476L77.3902 83.466C76.2563 84.2864 75.1648 85.5969 74.7366 87.3852L82.5167 89.2481ZM82.0797 89.9474C85.5289 87.4517 87.3286 83.5104 87.3286 79.2627H79.3286C79.3286 81.2195 78.5465 82.6293 77.39 83.4662L82.0797 89.9474ZM87.3286 79.2627C87.3286 71.7669 80.9894 65.9523 73.5 65.9523V73.9523C76.9432 73.9523 79.3286 76.5483 79.3286 79.2627H87.3286ZM77.7282 88.6396H69.2718V96.6396H77.7282V88.6396ZM65.3323 93.3328C65.5011 94.2919 65.6037 95.0425 65.6304 95.4772L73.6153 94.9862C73.5596 94.0792 73.3897 92.9608 73.2113 91.9464L65.3323 93.3328ZM65.6304 95.4771C65.7908 98.0861 67.7224 100.133 70.1614 100.652L71.8258 92.8268C72.683 93.0091 73.5418 93.79 73.6153 94.9863L65.6304 95.4771ZM70.1607 100.652L70.4689 100.717L72.1348 92.8926L71.8265 92.8269L70.1607 100.652ZM70.4702 100.717C72.4659 101.142 74.5341 101.142 76.5298 100.717L74.8665 92.8923C73.9674 93.0834 73.0326 93.0834 72.1335 92.8923L70.4702 100.717ZM76.5311 100.717L76.8393 100.652L75.1735 92.8269L74.8652 92.8926L76.5311 100.717ZM76.8386 100.652C79.2771 100.133 81.2093 98.0865 81.3697 95.477L73.3847 94.9864C73.4583 93.7896 74.3173 93.009 75.1741 92.8268L76.8386 100.652ZM81.3697 95.4769C81.3964 95.0423 81.4989 94.2918 81.6677 93.3327L73.7887 91.9465C73.6102 92.9609 73.4404 94.0793 73.3847 94.9865L81.3697 95.4769ZM65.3125 79.2627C65.3125 75.2007 68.8215 71.6309 73.5 71.6309V63.6309C64.7928 63.6309 57.3125 70.4027 57.3125 79.2627H65.3125ZM73.5 71.6309C78.1785 71.6309 81.6875 75.2007 81.6875 79.2627H89.6875C89.6875 70.4027 82.2073 63.6309 73.5 63.6309V71.6309ZM81.6875 79.2627C81.6875 81.8716 80.6157 84.0135 78.7873 85.3364L83.4768 91.8178C87.6028 88.8325 89.6875 84.1561 89.6875 79.2627H81.6875ZM78.7878 85.336C78.0089 85.8994 77.3049 86.7725 77.0312 87.9236L84.8142 89.7742C84.5739 90.785 83.9835 91.4513 83.4763 91.8182L78.7878 85.336ZM77.0326 87.9177C76.8336 88.7492 76.5957 89.8304 76.3791 90.924L84.2268 92.4777C84.4239 91.4823 84.6395 90.5042 84.8128 89.7801L77.0326 87.9177ZM76.3791 90.924C76.0933 92.3681 75.8075 94.0167 75.7392 95.1264L83.7241 95.6174C83.7556 95.1059 83.9378 93.9378 84.2268 92.4776L76.3791 90.924ZM75.7392 95.1267C75.7402 95.1095 75.745 95.0893 75.7523 95.0721C75.759 95.0565 75.7645 95.0509 75.7627 95.0529C75.7576 95.0586 75.7307 95.0835 75.6725 95.0959L77.3367 102.921C80.7466 102.196 83.4963 99.3272 83.7241 95.6171L75.7392 95.1267ZM75.6736 95.0956L75.3653 95.1611L77.0274 102.987L77.3356 102.921L75.6736 95.0956ZM75.3643 95.1613C74.1371 95.4223 72.8629 95.4223 71.6357 95.1613L69.9716 102.986C72.2959 103.481 74.7041 103.481 77.0284 102.986L75.3643 95.1613ZM71.6347 95.1611L71.3264 95.0956L69.6644 102.921L69.9726 102.987L71.6347 95.1611ZM71.3275 95.0959C71.2694 95.0835 71.2424 95.0586 71.2373 95.0529C71.2355 95.0509 71.241 95.0564 71.2477 95.0721C71.255 95.0892 71.2597 95.1092 71.2607 95.1265L63.2758 95.6174C63.5039 99.3271 66.2533 102.196 69.6633 102.921L71.3275 95.0959ZM71.2607 95.1265C71.1925 94.0167 70.9067 92.3681 70.6209 90.9241L62.7731 92.4776C63.0622 93.9379 63.2444 95.1059 63.2758 95.6174L71.2607 95.1265ZM70.6208 90.924C70.4043 89.8304 70.1664 88.7492 69.9674 87.9178L62.1872 89.78C62.3605 90.5042 62.5761 91.4823 62.7732 92.4776L70.6208 90.924ZM69.9676 87.9186C69.6935 86.7725 68.9926 85.9008 68.2133 85.3368L63.5227 91.8174C63.0149 91.4499 62.4275 90.785 62.1869 89.7791L69.9676 87.9186ZM68.2127 85.3364C66.3842 84.0135 65.3125 81.8717 65.3125 79.2627H57.3125C57.3125 84.1561 59.3971 88.8325 63.5232 91.8178L68.2127 85.3364Z" fill="white" mask="url(#path-4-inside-1_16_158)"/>
<path d="M56.472 49.524H58.758H58.92V49.704C58.86 49.776 58.818 49.854 58.794 49.938C58.782 50.022 58.776 50.166 58.776 50.37V58.884H63.834V60.738H56.472V49.524ZM71.16 58.344H66.678L66.966 56.742H70.818L71.16 58.344ZM69.018 53.538L66.966 60.738H64.698L68.388 49.488H69.63L73.32 60.738H71.016L69.018 53.538ZM74.022 60.738V49.524H76.056L78.036 54.546L80.016 49.506H82.068V60.738H80.124V53.106L78.576 57.12H77.424L75.948 53.124V60.738H74.022ZM83.292 60.738V49.524H87.198C88.074 49.524 88.794 49.674 89.358 49.974C89.934 50.274 90.36 50.676 90.636 51.18C90.924 51.684 91.068 52.242 91.068 52.854C91.068 53.298 90.99 53.718 90.834 54.114C90.678 54.51 90.444 54.858 90.132 55.158C89.82 55.458 89.424 55.692 88.944 55.86C88.476 56.028 87.924 56.112 87.288 56.112H85.614V60.738H83.292ZM85.614 54.24H87.144C87.468 54.24 87.744 54.18 87.972 54.06C88.212 53.94 88.398 53.778 88.53 53.574C88.662 53.358 88.728 53.112 88.728 52.836C88.728 52.56 88.662 52.32 88.53 52.116C88.398 51.912 88.218 51.756 87.99 51.648C87.762 51.528 87.486 51.468 87.162 51.468H85.614V54.24Z" fill="white"/>
</svg>
