<svg width="133" height="82" viewBox="0 0 133 82" fill="none" xmlns="http://www.w3.org/2000/svg">
<path d="M28.0739 10.464V17.376C28.0739 18.448 28.1059 19.344 28.6659 20.224C29.7539 21.968 31.8659 22.224 33.0179 22.224C35.3539 22.224 38.0899 21.12 38.0899 17.68V10.464H35.6739V17.376C35.6739 18.544 35.5459 18.992 35.3059 19.344C34.6659 20.336 33.4659 20.352 33.0659 20.352C30.6499 20.352 30.5539 18.768 30.5539 17.504V10.464H28.0739ZM40.527 22H42.863V12.4L47.343 22H50.751V10.432H48.447V19.536L44.111 10.432H40.527V22ZM52.7881 22H55.2681V10.4H52.7881V22ZM59.9453 22H62.4413V12.352H65.8813V10.432H56.5053V12.352H59.9453V22ZM70.9156 22H78.7556V20.144C78.3876 20.16 78.1956 20.16 76.4836 20.192C75.2196 20.208 75.0276 20.224 73.4116 20.256C78.2436 16.368 78.6916 14.88 78.6916 13.728C78.6916 12 77.3476 10.688 74.9156 10.688C73.5556 10.688 72.3716 11.104 71.7316 11.904C71.0756 12.72 71.0756 13.552 71.0756 14H73.5236C73.5396 13.68 73.6516 12.368 74.9316 12.368C75.7636 12.368 76.2596 12.944 76.2596 13.792C76.2596 14.304 76.1156 14.656 75.4916 15.408C74.8996 16.128 74.3236 16.64 73.8116 17.104L70.9156 19.744V22ZM79.8063 22H87.6463V20.144C87.2783 20.16 87.0863 20.16 85.3743 20.192C84.1102 20.208 83.9183 20.224 82.3023 20.256C87.1343 16.368 87.5823 14.88 87.5823 13.728C87.5823 12 86.2383 10.688 83.8063 10.688C82.4463 10.688 81.2623 11.104 80.6223 11.904C79.9663 12.72 79.9663 13.552 79.9663 14H82.4143C82.4303 13.68 82.5423 12.368 83.8223 12.368C84.6543 12.368 85.1503 12.944 85.1503 13.792C85.1503 14.304 85.0063 14.656 84.3823 15.408C83.7903 16.128 83.2143 16.64 82.7023 17.104L79.8063 19.744V22ZM89.8169 14.736C91.0329 14.24 91.9609 13.664 92.4249 13.312V22H94.8409V10.832H92.7769C91.8489 11.504 90.8569 12.064 89.8169 12.512V14.736ZM101.924 19.568V22H104.292V19.568H105.812V17.728H104.292L104.308 10.832H101.924L97.4435 17.408V19.568H101.924ZM102.084 13.6C102.068 13.888 102.052 14.688 102.052 14.832V17.776H99.2355L102.084 13.6ZM7.525 41H15.365V39.144C14.997 39.16 14.805 39.16 13.093 39.192C11.829 39.208 11.637 39.224 10.021 39.256C14.853 35.368 15.301 33.88 15.301 32.728C15.301 31 13.957 29.688 11.525 29.688C10.165 29.688 8.981 30.104 8.341 30.904C7.685 31.72 7.685 32.552 7.685 33H10.133C10.149 32.68 10.261 31.368 11.541 31.368C12.373 31.368 12.869 31.944 12.869 32.792C12.869 33.304 12.725 33.656 12.101 34.408C11.509 35.128 10.933 35.64 10.421 36.104L7.525 38.744V41ZM20.8156 29.512L16.4796 41H18.3516L22.6556 29.512H20.8156ZM27.861 38.568V41H30.229V38.568H31.749V36.728H30.229L30.245 29.832H27.861L23.381 36.408V38.568H27.861ZM28.021 32.6C28.005 32.888 27.989 33.688 27.989 33.832V36.776H25.173L28.021 32.6ZM44.5008 41C44.3568 40.328 44.3088 39.64 44.3088 38.952L44.2928 35.704C44.2928 35.336 44.2768 34.376 43.7328 33.72C42.9328 32.792 41.5248 32.68 40.8528 32.68C40.0848 32.68 39.1408 32.808 38.4048 33.336C37.5568 33.944 37.5088 34.808 37.4928 35.24H39.8128C39.8128 35.048 39.8128 34.792 39.9888 34.52C40.1968 34.216 40.5488 34.072 40.8848 34.072C41.1088 34.072 41.7328 34.152 41.9408 34.744C42.0368 35.032 42.0528 35.288 42.0528 35.816C41.2688 35.816 39.8448 35.816 38.8528 36.264C37.3648 36.952 37.1408 38.136 37.1408 38.776C37.1408 39.416 37.3648 40.072 37.8448 40.552C38.1648 40.856 38.6928 41.192 39.8608 41.192C40.3088 41.192 41.3808 41.192 42.2768 39.896C42.2768 40.136 42.2768 40.504 42.3568 41H44.5008ZM42.0528 37.192C42.0528 38.056 42.0208 38.68 41.6048 39.192C41.3808 39.448 41.0288 39.656 40.5968 39.656C39.8128 39.656 39.4448 39.048 39.4448 38.504C39.4448 37.544 40.5328 37.064 42.0528 37.192ZM51.1514 39.336C50.8634 39.368 50.7034 39.384 50.3514 39.384C49.2954 39.384 49.2954 38.92 49.2794 38.184V34.536H51.1994V32.968H49.2794V30.52L46.9274 31.384V32.968H45.3754V34.536H46.9274V38.968C46.9274 39.64 46.9274 41.144 49.3114 41.144C49.6954 41.144 50.3834 41.096 51.1514 40.888V39.336ZM57.5513 33.736C58.7673 33.24 59.6953 32.664 60.1593 32.312V41H62.5753V29.832H60.5113C59.5833 30.504 58.5913 31.064 57.5513 31.512V33.736ZM65.3219 41H73.1619V39.144C72.7939 39.16 72.6019 39.16 70.8899 39.192C69.6259 39.208 69.4339 39.224 67.8179 39.256C72.6499 35.368 73.0979 33.88 73.0979 32.728C73.0979 31 71.7539 29.688 69.3219 29.688C67.9619 29.688 66.7779 30.104 66.1379 30.904C65.4819 31.72 65.4819 32.552 65.4819 33H67.9299C67.9459 32.68 68.0579 31.368 69.3379 31.368C70.1699 31.368 70.6659 31.944 70.6659 32.792C70.6659 33.304 70.5219 33.656 69.8979 34.408C69.3059 35.128 68.7299 35.64 68.2179 36.104L65.3219 38.744V41ZM75.0285 41H77.0445V38.856H75.0285V41ZM75.0285 35.08H77.0445V32.92H75.0285V35.08ZM78.6176 37.96C78.6176 38.408 78.6496 39.672 79.6416 40.488C80.3616 41.064 81.5296 41.24 82.3296 41.24C84.6496 41.24 86.3776 39.832 86.3776 37.944C86.3776 37.416 86.2496 36.6 85.4656 35.944C84.9536 35.512 84.4896 35.368 84.1376 35.256C84.6336 35.112 86.2816 34.6 86.2816 32.728C86.2816 31.512 85.3696 29.688 82.5216 29.688C81.3376 29.688 80.1536 30.024 79.4176 30.92C78.8576 31.608 78.8096 32.312 78.7616 32.808H81.2096C81.2096 31.88 81.8816 31.416 82.5696 31.416C83.2896 31.416 83.9456 31.864 83.9456 32.744C83.9456 34.344 82.2976 34.376 81.1776 34.408V36.28C82.3456 36.28 83.9296 36.28 83.9296 37.928C83.9296 38.792 83.3856 39.448 82.4896 39.448C81.1616 39.448 81.0656 38.312 81.0496 37.96H78.6176ZM87.7643 35.448C87.7643 38.424 88.7563 41.176 91.6203 41.176C94.9803 41.176 95.5723 37.768 95.5723 35.176C95.5723 33.08 95.1403 31.992 94.5643 31.144C94.1483 30.52 93.2203 29.672 91.6523 29.672C88.0683 29.672 87.7643 33.96 87.7643 35.448ZM93.1723 35.576C93.1723 37.112 92.9643 39.288 91.6843 39.288C90.4843 39.288 90.1963 37.512 90.1963 35.608C90.1963 35.336 90.1963 33.624 90.5643 32.488C90.6763 32.152 90.9803 31.528 91.6683 31.528C92.5483 31.528 92.8203 32.52 92.8843 32.824C93.0923 33.56 93.1723 34.872 93.1723 35.576ZM103.475 29.432L99.2988 41H101.667L102.531 38.504H107.107L107.939 41H110.435L106.419 29.432H103.475ZM103.171 36.632L104.883 31.704L106.483 36.632H103.171ZM111.726 41H114.046V31.08L117.134 41H119.182L122.334 31.08V41H124.798V29.432H120.862L118.222 37.848L115.774 29.432H111.726V41Z" fill="black"/>
<path d="M61.524 58.693C60.5313 58.0299 59.0852 58.7435 59.1927 60.0342L59.224 60.4107C59.7024 66.154 60.714 71.8439 62.2467 77.4113C62.6117 78.7372 64.4462 78.8515 65.0031 77.6226L67.3091 72.5341C67.5296 72.0476 68.0649 71.7354 68.6457 71.7976L74.351 72.4086C75.6605 72.5489 76.586 70.9499 75.5365 69.9367C71.3236 65.8696 66.7413 62.1784 61.8451 58.9075L61.524 58.693Z" fill="#0083CB"/>
</svg>
