<svg width="133" height="82" viewBox="0 0 133 82" fill="none" xmlns="http://www.w3.org/2000/svg">
<path d="M28.0739 1.464V8.376C28.0739 9.448 28.1059 10.344 28.6659 11.224C29.7539 12.968 31.8659 13.224 33.0179 13.224C35.3539 13.224 38.0899 12.12 38.0899 8.68V1.464H35.6739V8.376C35.6739 9.544 35.5459 9.992 35.3059 10.344C34.6659 11.336 33.4659 11.352 33.0659 11.352C30.6499 11.352 30.5539 9.768 30.5539 8.504V1.464H28.0739ZM40.527 13H42.863V3.4L47.343 13H50.751V1.432H48.447V10.536L44.111 1.432H40.527V13ZM52.7881 13H55.2681V1.4H52.7881V13ZM59.9453 13H62.4413V3.352H65.8813V1.432H56.5053V3.352H59.9453V13ZM70.9156 13H78.7556V11.144C78.3876 11.16 78.1956 11.16 76.4836 11.192C75.2196 11.208 75.0276 11.224 73.4116 11.256C78.2436 7.368 78.6916 5.88 78.6916 4.728C78.6916 3 77.3476 1.688 74.9156 1.688C73.5556 1.688 72.3716 2.104 71.7316 2.904C71.0756 3.72 71.0756 4.552 71.0756 5H73.5236C73.5396 4.68 73.6516 3.368 74.9316 3.368C75.7636 3.368 76.2596 3.944 76.2596 4.792C76.2596 5.304 76.1156 5.656 75.4916 6.408C74.8996 7.128 74.3236 7.64 73.8116 8.104L70.9156 10.744V13ZM79.8063 13H87.6463V11.144C87.2783 11.16 87.0863 11.16 85.3743 11.192C84.1102 11.208 83.9183 11.224 82.3023 11.256C87.1343 7.368 87.5823 5.88 87.5823 4.728C87.5823 3 86.2383 1.688 83.8063 1.688C82.4463 1.688 81.2623 2.104 80.6223 2.904C79.9663 3.72 79.9663 4.552 79.9663 5H82.4143C82.4303 4.68 82.5423 3.368 83.8223 3.368C84.6543 3.368 85.1503 3.944 85.1503 4.792C85.1503 5.304 85.0063 5.656 84.3823 6.408C83.7903 7.128 83.2143 7.64 82.7023 8.104L79.8063 10.744V13ZM88.9049 7.448C88.9049 10.424 89.8969 13.176 92.7609 13.176C96.1209 13.176 96.7129 9.768 96.7129 7.176C96.7129 5.08 96.2809 3.992 95.7049 3.144C95.2889 2.52 94.3609 1.672 92.7929 1.672C89.2089 1.672 88.9049 5.96 88.9049 7.448ZM94.3129 7.576C94.3129 9.112 94.1049 11.288 92.8249 11.288C91.6249 11.288 91.3369 9.512 91.3369 7.608C91.3369 7.336 91.3369 5.624 91.7049 4.488C91.8169 4.152 92.1209 3.528 92.8089 3.528C93.6889 3.528 93.9609 4.52 94.0249 4.824C94.2329 5.56 94.3129 6.872 94.3129 7.576ZM101.924 10.568V13H104.292V10.568H105.812V8.728H104.292L104.308 1.832H101.924L97.4435 8.408V10.568H101.924ZM102.084 4.6C102.068 4.888 102.052 5.688 102.052 5.832V8.776H99.2355L102.084 4.6ZM16.1899 32H23.6779V30.032H18.7179V20.448H16.1899V32ZM32.0086 32C31.8646 31.328 31.8166 30.64 31.8166 29.952L31.8006 26.704C31.8006 26.336 31.7846 25.376 31.2406 24.72C30.4406 23.792 29.0326 23.68 28.3606 23.68C27.5926 23.68 26.6486 23.808 25.9126 24.336C25.0646 24.944 25.0166 25.808 25.0006 26.24H27.3206C27.3206 26.048 27.3206 25.792 27.4966 25.52C27.7046 25.216 28.0566 25.072 28.3926 25.072C28.6166 25.072 29.2406 25.152 29.4486 25.744C29.5446 26.032 29.5606 26.288 29.5606 26.816C28.7766 26.816 27.3526 26.816 26.3606 27.264C24.8726 27.952 24.6486 29.136 24.6486 29.776C24.6486 30.416 24.8726 31.072 25.3526 31.552C25.6726 31.856 26.2006 32.192 27.3686 32.192C27.8166 32.192 28.8886 32.192 29.7846 30.896C29.7846 31.136 29.7846 31.504 29.8646 32H32.0086ZM29.5606 28.192C29.5606 29.056 29.5286 29.68 29.1126 30.192C28.8886 30.448 28.5366 30.656 28.1046 30.656C27.3206 30.656 26.9526 30.048 26.9526 29.504C26.9526 28.544 28.0406 28.064 29.5606 28.192ZM33.9552 32H36.3392V27.248C36.3392 26.704 36.3392 25.424 37.8272 25.424C39.1392 25.424 39.1552 26.576 39.1552 27.2V32H41.5392V27.952C41.5392 26.752 41.5712 25.424 42.9952 25.424C44.2272 25.424 44.3552 26.384 44.3552 27.248V32H46.7392V27.44C46.7392 26.736 46.7712 25.76 46.3392 25.056C46.1632 24.736 45.5072 23.76 43.8752 23.76C43.0432 23.76 41.9552 23.968 41.2832 25.264C41.1232 24.88 40.5952 23.744 38.7392 23.744C37.1232 23.744 36.4992 24.608 36.2432 24.96L36.1632 23.92H33.8752C33.9232 24.432 33.9552 24.928 33.9552 25.44V32ZM48.9366 23.92V35.104H51.3526V31.072C51.5606 31.344 52.1526 32.112 53.6086 32.112C55.9446 32.112 57.1286 30.08 57.1286 27.792C57.1286 25.328 55.8646 23.76 53.7686 23.76C53.3846 23.76 52.0406 23.776 51.3046 25.072L51.2406 23.92H48.9366ZM53.0006 30.56C51.2566 30.56 51.2406 28.512 51.2406 28.032C51.2406 25.856 52.3286 25.28 53.0966 25.28C54.4886 25.28 54.7286 26.928 54.7286 27.888C54.7286 29.488 54.1206 30.56 53.0006 30.56ZM62.8829 26.384C62.8829 27.44 63.0429 29.36 64.3069 30.704C65.3629 31.808 66.8829 32.288 68.4029 32.288C69.3629 32.288 71.2349 32.08 72.5149 30.64C73.4589 29.584 73.9709 27.792 73.9709 26.112C73.9709 24.976 73.7309 23.168 72.4989 21.76C71.3629 20.48 69.6669 20.192 68.4349 20.192C64.2749 20.192 62.8829 23.312 62.8829 26.384ZM65.4749 26.304C65.4749 24.992 65.6669 23.744 66.3229 22.944C66.7869 22.352 67.5229 21.968 68.4509 21.968C69.6349 21.968 70.6109 22.592 71.0909 24.016C71.3309 24.72 71.3789 25.52 71.3789 26.08C71.3789 27.92 70.9789 28.816 70.5949 29.392C70.1309 30.112 69.4429 30.464 68.4349 30.464C67.2829 30.464 66.6909 30.016 66.3389 29.536C65.6509 28.64 65.4749 27.408 65.4749 26.304ZM75.6241 23.92V28.944C75.6241 29.344 75.6241 30.464 76.1521 31.12C76.6001 31.712 77.4961 32.208 78.5841 32.208C80.1201 32.208 80.7281 31.28 80.9681 30.928L81.0481 32H83.3521C83.3201 31.776 83.3041 31.632 83.2881 31.408C83.2881 31.2 83.2721 30.992 83.2401 29.248V23.92H80.8081V28C80.8081 29.376 80.8081 30.512 79.2881 30.512C78.0241 30.512 78.0241 29.44 78.0241 28.736V23.92H75.6241ZM90.2373 30.336C89.9493 30.368 89.7893 30.384 89.4373 30.384C88.3813 30.384 88.3813 29.92 88.3653 29.184V25.536H90.2853V23.968H88.3653V21.52L86.0133 22.384V23.968H84.4613V25.536H86.0133V29.968C86.0133 30.64 86.0133 32.144 88.3973 32.144C88.7813 32.144 89.4693 32.096 90.2373 31.888V30.336ZM98.6961 32C98.5521 31.328 98.5041 30.64 98.5041 29.952L98.4881 26.704C98.4881 26.336 98.4721 25.376 97.9281 24.72C97.1281 23.792 95.7201 23.68 95.0481 23.68C94.2801 23.68 93.3361 23.808 92.6001 24.336C91.7521 24.944 91.7041 25.808 91.6881 26.24H94.0081C94.0081 26.048 94.0081 25.792 94.1841 25.52C94.3921 25.216 94.7441 25.072 95.0801 25.072C95.3041 25.072 95.9281 25.152 96.1361 25.744C96.2321 26.032 96.2481 26.288 96.2481 26.816C95.4641 26.816 94.0401 26.816 93.0481 27.264C91.5601 27.952 91.3361 29.136 91.3361 29.776C91.3361 30.416 91.5601 31.072 92.0401 31.552C92.3601 31.856 92.8881 32.192 94.0561 32.192C94.5041 32.192 95.5761 32.192 96.4721 30.896C96.4721 31.136 96.4721 31.504 96.5521 32H98.6961ZM96.2481 28.192C96.2481 29.056 96.2161 29.68 95.8001 30.192C95.5761 30.448 95.2241 30.656 94.7921 30.656C94.0081 30.656 93.6401 30.048 93.6401 29.504C93.6401 28.544 94.7281 28.064 96.2481 28.192ZM106.035 23.952L105.955 25.024C105.715 24.672 105.171 23.872 103.699 23.872C101.379 23.872 100.243 25.824 100.243 27.872C100.243 29.824 101.331 31.84 103.651 31.84C104.227 31.84 105.075 31.728 105.827 30.736C105.811 31.968 105.811 32.256 105.715 32.656C105.555 33.376 104.947 33.712 104.243 33.712C102.979 33.712 102.867 32.832 102.835 32.592H100.563C100.707 35.04 102.963 35.184 104.115 35.184C105.667 35.184 108.147 34.896 108.147 31.92V25.952C108.147 25.136 108.195 24.592 108.259 23.952H106.035ZM102.611 27.872C102.611 26.144 103.347 25.456 104.243 25.456C105.683 25.456 105.859 27.008 105.859 27.92C105.859 28.272 105.859 30.224 104.195 30.224C102.611 30.224 102.611 28.272 102.611 27.872ZM117.391 28.56C117.423 27.888 117.455 26.704 116.911 25.6C116.175 24.096 114.799 23.648 113.647 23.648C112.767 23.648 111.999 23.904 111.375 24.32C110.015 25.264 109.695 26.832 109.695 28.144C109.695 29.44 109.999 30.528 110.735 31.296C111.583 32.176 112.895 32.304 113.583 32.304C114.767 32.304 115.823 31.984 116.415 31.36C117.071 30.672 117.151 29.984 117.183 29.6H115.023C114.799 30.496 114.207 30.72 113.615 30.72C111.967 30.72 111.967 29.088 111.967 28.56H117.391ZM112.047 27.072C112.095 26.128 112.527 25.264 113.567 25.264C114.943 25.264 114.975 26.704 114.975 27.072H112.047ZM12.2125 51H20.0525V49.144C19.6845 49.16 19.4925 49.16 17.7805 49.192C16.5165 49.208 16.3245 49.224 14.7085 49.256C19.5405 45.368 19.9885 43.88 19.9885 42.728C19.9885 41 18.6445 39.688 16.2125 39.688C14.8525 39.688 13.6685 40.104 13.0285 40.904C12.3725 41.72 12.3725 42.552 12.3725 43H14.8205C14.8365 42.68 14.9485 41.368 16.2285 41.368C17.0605 41.368 17.5565 41.944 17.5565 42.792C17.5565 43.304 17.4125 43.656 16.7885 44.408C16.1965 45.128 15.6205 45.64 15.1085 46.104L12.2125 48.744V51ZM25.5031 39.512L21.1671 51H23.0391L27.3431 39.512H25.5031ZM28.3085 48.248C28.3245 48.664 28.3725 49.352 28.9325 50.024C29.7005 50.936 30.8845 51.24 32.0525 51.24C34.9165 51.24 36.0365 49.096 36.0365 47.192C36.0365 44.952 34.5325 43.64 32.7405 43.64C31.5085 43.64 30.9805 44.136 30.6285 44.44L30.7725 41.672H35.4285V39.848H28.6605L28.4045 46.456L30.7245 46.52C30.8045 46.264 31.0765 45.4 32.1485 45.4C33.2205 45.4 33.6365 46.328 33.6365 47.4C33.6365 48.872 32.8525 49.496 31.9885 49.496C30.8685 49.496 30.6605 48.504 30.6765 48.248H28.3085ZM49.1883 51C49.0443 50.328 48.9963 49.64 48.9963 48.952L48.9803 45.704C48.9803 45.336 48.9643 44.376 48.4203 43.72C47.6203 42.792 46.2123 42.68 45.5403 42.68C44.7723 42.68 43.8283 42.808 43.0923 43.336C42.2443 43.944 42.1963 44.808 42.1803 45.24H44.5003C44.5003 45.048 44.5003 44.792 44.6763 44.52C44.8843 44.216 45.2363 44.072 45.5723 44.072C45.7963 44.072 46.4203 44.152 46.6283 44.744C46.7243 45.032 46.7403 45.288 46.7403 45.816C45.9563 45.816 44.5323 45.816 43.5403 46.264C42.0523 46.952 41.8283 48.136 41.8283 48.776C41.8283 49.416 42.0523 50.072 42.5323 50.552C42.8523 50.856 43.3803 51.192 44.5483 51.192C44.9963 51.192 46.0683 51.192 46.9643 49.896C46.9643 50.136 46.9643 50.504 47.0443 51H49.1883ZM46.7403 47.192C46.7403 48.056 46.7083 48.68 46.2923 49.192C46.0683 49.448 45.7163 49.656 45.2843 49.656C44.5003 49.656 44.1323 49.048 44.1323 48.504C44.1323 47.544 45.2203 47.064 46.7403 47.192ZM55.8389 49.336C55.5509 49.368 55.3909 49.384 55.0389 49.384C53.9829 49.384 53.9829 48.92 53.9669 48.184V44.536H55.8869V42.968H53.9669V40.52L51.6149 41.384V42.968H50.0629V44.536H51.6149V48.968C51.6149 49.64 51.6149 51.144 53.9989 51.144C54.3829 51.144 55.0709 51.096 55.8389 50.888V49.336ZM61.2148 48.248C61.2308 48.664 61.2788 49.352 61.8388 50.024C62.6068 50.936 63.7908 51.24 64.9588 51.24C67.8228 51.24 68.9427 49.096 68.9427 47.192C68.9427 44.952 67.4388 43.64 65.6468 43.64C64.4148 43.64 63.8868 44.136 63.5348 44.44L63.6788 41.672H68.3348V39.848H61.5668L61.3108 46.456L63.6308 46.52C63.7108 46.264 63.9828 45.4 65.0548 45.4C66.1268 45.4 66.5428 46.328 66.5428 47.4C66.5428 48.872 65.7588 49.496 64.8948 49.496C63.7748 49.496 63.5668 48.504 63.5828 48.248H61.2148ZM70.8254 51H72.8414V48.856H70.8254V51ZM70.8254 45.08H72.8414V42.92H70.8254V45.08ZM74.4145 47.96C74.4145 48.408 74.4465 49.672 75.4385 50.488C76.1585 51.064 77.3265 51.24 78.1265 51.24C80.4465 51.24 82.1745 49.832 82.1745 47.944C82.1745 47.416 82.0465 46.6 81.2625 45.944C80.7505 45.512 80.2865 45.368 79.9345 45.256C80.4305 45.112 82.0785 44.6 82.0785 42.728C82.0785 41.512 81.1665 39.688 78.3185 39.688C77.1345 39.688 75.9505 40.024 75.2145 40.92C74.6545 41.608 74.6065 42.312 74.5585 42.808H77.0065C77.0065 41.88 77.6785 41.416 78.3665 41.416C79.0865 41.416 79.7425 41.864 79.7425 42.744C79.7425 44.344 78.0945 44.376 76.9745 44.408V46.28C78.1425 46.28 79.7265 46.28 79.7265 47.928C79.7265 48.792 79.1825 49.448 78.2865 49.448C76.9585 49.448 76.8625 48.312 76.8465 47.96H74.4145ZM84.4731 43.736C85.6891 43.24 86.6171 42.664 87.0811 42.312V51H89.4971V39.832H87.4331C86.5051 40.504 85.5131 41.064 84.4731 41.512V43.736ZM97.3369 51H99.8489V46.504H101.529C102.137 46.504 103.305 46.504 104.153 45.96C105.065 45.368 105.625 44.232 105.625 42.888C105.625 42.296 105.529 41.464 104.921 40.728C103.961 39.576 102.569 39.464 100.905 39.464H97.3369V51ZM99.7849 41.336H101.033C101.737 41.336 103.065 41.336 103.065 42.904C103.065 44.664 101.577 44.664 100.777 44.664H99.7849V41.336ZM107.038 51H109.358V41.08L112.446 51H114.494L117.646 41.08V51H120.11V39.432H116.174L113.534 47.848L111.086 39.432H107.038V51Z" fill="black"/>
<g clip-path="url(#clip0_186_5144)">
<path d="M67.8113 56.9653C67.339 55.869 65.7373 55.6813 65.1255 56.8229L64.9471 57.1559C62.2249 62.2357 59.9793 67.5607 58.2376 73.0663C57.8228 74.3774 59.3001 75.4711 60.4359 74.7427L65.1384 71.7268C65.588 71.4384 66.207 71.4675 66.6606 71.8356L71.116 75.4512C72.1387 76.2812 73.7849 75.4427 73.4552 74.0217C72.1318 68.3174 70.294 62.7277 67.9641 57.32L67.8113 56.9653Z" fill="#BB0A21"/>
</g>
<defs>
<clipPath id="clip0_186_5144">
<rect width="26" height="26" fill="white" transform="translate(53.5 56)"/>
</clipPath>
</defs>
</svg>
