<svg width="91" height="75" viewBox="0 0 91 75" fill="none" xmlns="http://www.w3.org/2000/svg">
<path d="M16.3833 8.96C16.3833 9.408 16.4153 10.672 17.4073 11.488C18.1273 12.064 19.2953 12.24 20.0953 12.24C22.4153 12.24 24.1433 10.832 24.1433 8.944C24.1433 8.416 24.0153 7.6 23.2313 6.944C22.7193 6.512 22.2553 6.368 21.9033 6.256C22.3993 6.112 24.0473 5.6 24.0473 3.728C24.0473 2.512 23.1353 0.688 20.2873 0.688C19.1033 0.688 17.9193 1.024 17.1833 1.92C16.6233 2.608 16.5753 3.312 16.5273 3.808H18.9753C18.9753 2.88 19.6473 2.416 20.3353 2.416C21.0553 2.416 21.7113 2.864 21.7113 3.744C21.7113 5.344 20.0633 5.376 18.9433 5.408V7.28C20.1113 7.28 21.6953 7.28 21.6953 8.928C21.6953 9.792 21.1513 10.448 20.2552 10.448C18.9273 10.448 18.8313 9.312 18.8153 8.96H16.3833ZM30.479 12H32.959V7.072H37.599V5.152H32.959V2.304H37.935V0.447999H30.479V12ZM45.657 12C45.513 11.328 45.465 10.64 45.465 9.952L45.449 6.704C45.449 6.336 45.433 5.376 44.889 4.72C44.089 3.792 42.681 3.68 42.009 3.68C41.241 3.68 40.297 3.808 39.561 4.336C38.713 4.944 38.665 5.808 38.649 6.24H40.969C40.969 6.048 40.969 5.792 41.145 5.52C41.353 5.216 41.705 5.072 42.041 5.072C42.265 5.072 42.889 5.152 43.097 5.744C43.193 6.032 43.209 6.288 43.209 6.816C42.425 6.816 41.001 6.816 40.009 7.264C38.521 7.952 38.297 9.136 38.297 9.776C38.297 10.416 38.521 11.072 39.001 11.552C39.321 11.856 39.849 12.192 41.017 12.192C41.465 12.192 42.537 12.192 43.433 10.896C43.433 11.136 43.433 11.504 43.513 12H45.657ZM43.209 8.192C43.209 9.056 43.177 9.68 42.761 10.192C42.537 10.448 42.185 10.656 41.753 10.656C40.969 10.656 40.601 10.048 40.601 9.504C40.601 8.544 41.689 8.064 43.209 8.192ZM47.4756 3.92V8.944C47.4756 9.344 47.4756 10.464 48.0036 11.12C48.4516 11.712 49.3476 12.208 50.4356 12.208C51.9716 12.208 52.5796 11.28 52.8196 10.928L52.8996 12H55.2036C55.1716 11.776 55.1556 11.632 55.1396 11.408C55.1396 11.2 55.1236 10.992 55.0916 9.248V3.92H52.6596V8C52.6596 9.376 52.6596 10.512 51.1396 10.512C49.8756 10.512 49.8756 9.44 49.8756 8.736V3.92H47.4756ZM57.3369 12H59.7049V0.431999H57.3369V12ZM66.542 10.336C66.254 10.368 66.094 10.384 65.742 10.384C64.686 10.384 64.686 9.92 64.67 9.184V5.536H66.59V3.968H64.67V1.52L62.318 2.384V3.968H60.766V5.536H62.318V9.968C62.318 10.64 62.318 12.144 64.702 12.144C65.086 12.144 65.774 12.096 66.542 11.888V10.336ZM67.4328 9.664C67.4488 10.048 67.4967 10.688 68.0247 11.248C68.7608 12.016 69.7528 12.24 70.7928 12.24C73.3048 12.24 74.5048 10.848 74.5048 9.456C74.5048 8.352 73.8168 7.6 72.3448 7.2L70.8888 6.8C70.1848 6.608 69.7848 6.496 69.7848 5.952C69.7848 5.456 70.2648 5.152 70.9048 5.152C71.2728 5.152 71.9928 5.216 72.0568 6.112H74.2168C74.1528 4.496 72.8088 3.728 71.1448 3.728C69.0488 3.728 67.6088 4.688 67.6088 6.256C67.6088 7.904 69.0008 8.304 69.6568 8.496L71.1288 8.896C72.0568 9.152 72.2488 9.44 72.2488 9.808C72.2488 10.288 71.8488 10.768 71.0008 10.768C70.0088 10.768 69.6888 10.176 69.6568 9.664H67.4328ZM9.65281 23.736C10.8688 23.24 11.7968 22.664 12.2608 22.312V31H14.6768V19.832H12.6128C11.6848 20.504 10.6928 21.064 9.65281 21.512V23.736ZM19.7166 19.48L22.5326 31.032H25.3486L27.6046 22.2L29.7006 31.032H32.4526L35.3966 19.48H33.0286L31.1566 28.136L29.1246 19.48H26.3246L24.0686 28.136L22.2766 19.48H19.7166ZM42.6336 31C42.4896 30.328 42.4416 29.64 42.4416 28.952L42.4256 25.704C42.4256 25.336 42.4096 24.376 41.8656 23.72C41.0656 22.792 39.6576 22.68 38.9856 22.68C38.2176 22.68 37.2736 22.808 36.5376 23.336C35.6896 23.944 35.6416 24.808 35.6256 25.24H37.9456C37.9456 25.048 37.9456 24.792 38.1216 24.52C38.3296 24.216 38.6816 24.072 39.0176 24.072C39.2416 24.072 39.8656 24.152 40.0736 24.744C40.1696 25.032 40.1856 25.288 40.1856 25.816C39.4016 25.816 37.9776 25.816 36.9856 26.264C35.4976 26.952 35.2736 28.136 35.2736 28.776C35.2736 29.416 35.4976 30.072 35.9776 30.552C36.2976 30.856 36.8256 31.192 37.9936 31.192C38.4416 31.192 39.5136 31.192 40.4096 29.896C40.4096 30.136 40.4096 30.504 40.4896 31H42.6336ZM40.1856 27.192C40.1856 28.056 40.1536 28.68 39.7376 29.192C39.5136 29.448 39.1616 29.656 38.7296 29.656C37.9456 29.656 37.5776 29.048 37.5776 28.504C37.5776 27.544 38.6656 27.064 40.1856 27.192ZM44.5322 31H46.9002V27.016C46.9002 26.008 47.0442 24.776 49.4442 25V22.872C47.5242 22.776 46.9962 23.752 46.6922 24.44L46.6442 22.888H44.4202C44.4682 23.352 44.5322 24.52 44.5322 24.904V31ZM50.1423 31H52.5263V26.264C52.5263 25.64 52.6703 25.24 52.8143 25.032C53.0703 24.648 53.5343 24.408 54.0463 24.408C54.6543 24.408 55.0223 24.744 55.1983 25.096C55.3263 25.352 55.3263 25.64 55.3263 25.976V31H57.7423V26.632C57.7423 25.128 57.6943 24.712 57.5183 24.216C57.3103 23.656 56.6383 22.696 55.0543 22.696C53.2943 22.696 52.6543 23.736 52.4303 24.104L52.3663 22.888H50.0943C50.1423 23.448 50.1423 24.328 50.1423 24.36V31ZM59.8116 21.512H62.3396V19.448H59.8116V21.512ZM59.8916 31H62.2596V22.904H59.8916V31ZM64.3767 31H66.7607V26.264C66.7607 25.64 66.9047 25.24 67.0487 25.032C67.3047 24.648 67.7687 24.408 68.2807 24.408C68.8887 24.408 69.2567 24.744 69.4327 25.096C69.5607 25.352 69.5607 25.64 69.5607 25.976V31H71.9767V26.632C71.9767 25.128 71.9287 24.712 71.7527 24.216C71.5447 23.656 70.8727 22.696 69.2887 22.696C67.5287 22.696 66.8887 23.736 66.6647 24.104L66.6007 22.888H64.3287C64.3767 23.448 64.3767 24.328 64.3767 24.36V31ZM79.5659 22.952L79.4859 24.024C79.2459 23.672 78.7019 22.872 77.2299 22.872C74.9099 22.872 73.7739 24.824 73.7739 26.872C73.7739 28.824 74.8619 30.84 77.1819 30.84C77.7579 30.84 78.6059 30.728 79.3579 29.736C79.3419 30.968 79.3419 31.256 79.2459 31.656C79.0859 32.376 78.4779 32.712 77.7739 32.712C76.5099 32.712 76.3979 31.832 76.3659 31.592H74.0939C74.2379 34.04 76.4939 34.184 77.6459 34.184C79.1979 34.184 81.6779 33.896 81.6779 30.92V24.952C81.6779 24.136 81.7259 23.592 81.7899 22.952H79.5659ZM76.1419 26.872C76.1419 25.144 76.8779 24.456 77.7739 24.456C79.2139 24.456 79.3899 26.008 79.3899 26.92C79.3899 27.272 79.3899 29.224 77.7259 29.224C76.1419 29.224 76.1419 27.272 76.1419 26.872Z" fill="black"/>
<circle cx="45.75" cy="54" r="18" fill="#0083CB"/>
<path d="M37.5304 64H40.4104V43.24H37.7404C36.5704 44.23 34.6504 45.49 32.7004 46.51V49.51C34.1704 48.82 36.2404 47.59 37.5304 46.51V64ZM45.7497 53.86C45.7497 57.58 46.4097 59.59 47.0997 60.97C47.9997 62.8 49.8897 64.42 52.6497 64.42C53.5797 64.42 55.3197 64.21 56.7897 62.83C58.6797 61.06 59.6697 58.3 59.6697 53.38C59.6697 49.48 58.9197 42.82 52.7097 42.82C46.1097 42.82 45.7497 50.77 45.7497 53.86ZM48.6297 53.71C48.6297 49.99 49.1097 45.22 52.7397 45.22C55.8897 45.22 56.7597 48.67 56.7597 53.65C56.7597 57.37 56.1597 61.93 52.6797 61.93C49.5297 61.93 48.6297 58.33 48.6297 53.71Z" fill="white"/>
</svg>
