<svg width="133" height="82" viewBox="0 0 133 82" fill="none" xmlns="http://www.w3.org/2000/svg">
<path d="M28.5114 1.464V8.376C28.5114 9.448 28.5434 10.344 29.1034 11.224C30.1914 12.968 32.3034 13.224 33.4554 13.224C35.7914 13.224 38.5274 12.12 38.5274 8.68V1.464H36.1114V8.376C36.1114 9.544 35.9834 9.992 35.7434 10.344C35.1034 11.336 33.9034 11.352 33.5034 11.352C31.0874 11.352 30.9914 9.768 30.9914 8.504V1.464H28.5114ZM40.9645 13H43.3005V3.4L47.7805 13H51.1885V1.432H48.8845V10.536L44.5485 1.432H40.9645V13ZM53.2256 13H55.7056V1.4H53.2256V13ZM60.3828 13H62.8788V3.352H66.3188V1.432H56.9428V3.352H60.3828V13ZM72.4731 5.736C73.6891 5.24 74.6171 4.664 75.0811 4.312V13H77.4971V1.832H75.4331C74.5051 2.504 73.5131 3.064 72.4731 3.512V5.736ZM80.1958 9.96C80.1958 10.408 80.2278 11.672 81.2198 12.488C81.9398 13.064 83.1078 13.24 83.9078 13.24C86.2278 13.24 87.9558 11.832 87.9558 9.944C87.9558 9.416 87.8278 8.6 87.0438 7.944C86.5318 7.512 86.0678 7.368 85.7158 7.256C86.2118 7.112 87.8598 6.6 87.8598 4.728C87.8598 3.512 86.9478 1.688 84.0998 1.688C82.9158 1.688 81.7318 2.024 80.9958 2.92C80.4358 3.608 80.3878 4.312 80.3398 4.808H82.7878C82.7878 3.88 83.4598 3.416 84.1478 3.416C84.8678 3.416 85.5238 3.864 85.5238 4.744C85.5238 6.344 83.8758 6.376 82.7558 6.408V8.28C83.9238 8.28 85.5078 8.28 85.5078 9.928C85.5078 10.792 84.9638 11.448 84.0677 11.448C82.7398 11.448 82.6438 10.312 82.6278 9.96H80.1958ZM89.3424 7.448C89.3424 10.424 90.3344 13.176 93.1984 13.176C96.5584 13.176 97.1504 9.768 97.1504 7.176C97.1504 5.08 96.7184 3.992 96.1424 3.144C95.7264 2.52 94.7984 1.672 93.2304 1.672C89.6464 1.672 89.3424 5.96 89.3424 7.448ZM94.7504 7.576C94.7504 9.112 94.5424 11.288 93.2624 11.288C92.0624 11.288 91.7744 9.512 91.7744 7.608C91.7744 7.336 91.7744 5.624 92.1424 4.488C92.2544 4.152 92.5584 3.528 93.2464 3.528C94.1264 3.528 94.3984 4.52 94.4624 4.824C94.6704 5.56 94.7504 6.872 94.7504 7.576ZM98.27 5.736C99.486 5.24 100.414 4.664 100.878 4.312V13H103.294V1.832H101.23C100.302 2.504 99.31 3.064 98.27 3.512V5.736ZM21.3888 20.432L17.2128 32H19.5808L20.4448 29.504H25.0208L25.8528 32H28.3488L24.3328 20.432H21.3888ZM21.0848 27.632L22.7968 22.704L24.3968 27.632H21.0848ZM29.7677 32H34.0877C34.5357 32 36.1037 32 36.9997 31.536C37.8957 31.088 38.6957 30.176 38.6957 28.816C38.6957 27.6 38.0077 26.32 36.2477 26V25.968C36.9197 25.792 37.4797 25.28 37.5597 25.184C38.1517 24.64 38.2317 23.888 38.2317 23.456C38.2317 22.784 37.9917 21.664 36.9357 20.992C36.0557 20.448 34.7597 20.448 34.0877 20.448H29.7677V32ZM32.1357 22.224H33.8157C34.6317 22.224 35.8477 22.224 35.8477 23.664C35.8477 25.152 34.5677 25.152 33.8637 25.152H32.1357V22.224ZM32.1357 26.944H33.5597C34.7437 26.944 36.2317 26.944 36.2317 28.592C36.2317 30.144 34.9517 30.144 33.8157 30.144H32.1357V26.944ZM39.9116 28.304C39.9276 29.424 39.9596 32.272 44.3916 32.272C47.5916 32.272 49.3196 30.592 49.3196 28.512C49.3196 26.256 47.3516 25.712 45.3516 25.232C43.6876 24.816 42.8396 24.624 42.8396 23.552C42.8396 22.608 43.5916 21.984 44.7436 21.984C46.4556 21.984 46.5836 23.344 46.6156 23.744H48.9996C48.9996 23.36 48.9996 22.432 48.3436 21.6C47.4796 20.512 46.0556 20.24 44.8556 20.24C41.6396 20.24 40.2796 21.92 40.2796 23.824C40.2796 25.824 41.7836 26.64 44.5356 27.328C46.0076 27.68 46.7276 27.856 46.7276 28.88C46.7276 29.856 45.8796 30.496 44.5356 30.496C42.4076 30.496 42.4396 28.848 42.4396 28.304H39.9116ZM52.7166 20.48L55.5326 32.032H58.3486L60.6046 23.2L62.7006 32.032H65.4526L68.3966 20.48H66.0286L64.1566 29.136L62.1246 20.48H59.3246L57.0686 29.136L55.2766 20.48H52.7166ZM75.6336 32C75.4896 31.328 75.4416 30.64 75.4416 29.952L75.4256 26.704C75.4256 26.336 75.4096 25.376 74.8656 24.72C74.0656 23.792 72.6576 23.68 71.9856 23.68C71.2176 23.68 70.2736 23.808 69.5376 24.336C68.6896 24.944 68.6416 25.808 68.6256 26.24H70.9456C70.9456 26.048 70.9456 25.792 71.1216 25.52C71.3296 25.216 71.6816 25.072 72.0176 25.072C72.2416 25.072 72.8656 25.152 73.0736 25.744C73.1696 26.032 73.1856 26.288 73.1856 26.816C72.4016 26.816 70.9776 26.816 69.9856 27.264C68.4976 27.952 68.2736 29.136 68.2736 29.776C68.2736 30.416 68.4976 31.072 68.9776 31.552C69.2976 31.856 69.8256 32.192 70.9936 32.192C71.4416 32.192 72.5136 32.192 73.4096 30.896C73.4096 31.136 73.4096 31.504 73.4896 32H75.6336ZM73.1856 28.192C73.1856 29.056 73.1536 29.68 72.7376 30.192C72.5136 30.448 72.1616 30.656 71.7296 30.656C70.9456 30.656 70.5776 30.048 70.5776 29.504C70.5776 28.544 71.6656 28.064 73.1856 28.192ZM77.5322 32H79.9002V28.016C79.9002 27.008 80.0442 25.776 82.4442 26V23.872C80.5242 23.776 79.9962 24.752 79.6922 25.44L79.6442 23.888H77.4202C77.4682 24.352 77.5322 25.52 77.5322 25.904V32ZM83.1423 32H85.5263V27.264C85.5263 26.64 85.6703 26.24 85.8143 26.032C86.0703 25.648 86.5343 25.408 87.0463 25.408C87.6543 25.408 88.0223 25.744 88.1983 26.096C88.3263 26.352 88.3263 26.64 88.3263 26.976V32H90.7423V27.632C90.7423 26.128 90.6943 25.712 90.5183 25.216C90.3103 24.656 89.6383 23.696 88.0543 23.696C86.2943 23.696 85.6543 24.736 85.4303 25.104L85.3663 23.888H83.0943C83.1423 24.448 83.1423 25.328 83.1423 25.36V32ZM92.8116 22.512H95.3396V20.448H92.8116V22.512ZM92.8916 32H95.2596V23.904H92.8916V32ZM97.3767 32H99.7607V27.264C99.7607 26.64 99.9047 26.24 100.049 26.032C100.305 25.648 100.769 25.408 101.281 25.408C101.889 25.408 102.257 25.744 102.433 26.096C102.561 26.352 102.561 26.64 102.561 26.976V32H104.977V27.632C104.977 26.128 104.929 25.712 104.753 25.216C104.545 24.656 103.873 23.696 102.289 23.696C100.529 23.696 99.8887 24.736 99.6647 25.104L99.6007 23.888H97.3287C97.3767 24.448 97.3767 25.328 97.3767 25.36V32ZM112.566 23.952L112.486 25.024C112.246 24.672 111.702 23.872 110.23 23.872C107.91 23.872 106.774 25.824 106.774 27.872C106.774 29.824 107.862 31.84 110.182 31.84C110.758 31.84 111.606 31.728 112.358 30.736C112.342 31.968 112.342 32.256 112.246 32.656C112.086 33.376 111.478 33.712 110.774 33.712C109.51 33.712 109.398 32.832 109.366 32.592H107.094C107.238 35.04 109.494 35.184 110.646 35.184C112.198 35.184 114.678 34.896 114.678 31.92V25.952C114.678 25.136 114.726 24.592 114.79 23.952H112.566ZM109.142 27.872C109.142 26.144 109.878 25.456 110.774 25.456C112.214 25.456 112.39 27.008 112.39 27.92C112.39 28.272 112.39 30.224 110.726 30.224C109.142 30.224 109.142 28.272 109.142 27.872ZM12.2125 51H20.0525V49.144C19.6845 49.16 19.4925 49.16 17.7805 49.192C16.5165 49.208 16.3245 49.224 14.7085 49.256C19.5405 45.368 19.9885 43.88 19.9885 42.728C19.9885 41 18.6445 39.688 16.2125 39.688C14.8525 39.688 13.6685 40.104 13.0285 40.904C12.3725 41.72 12.3725 42.552 12.3725 43H14.8205C14.8365 42.68 14.9485 41.368 16.2285 41.368C17.0605 41.368 17.5565 41.944 17.5565 42.792C17.5565 43.304 17.4125 43.656 16.7885 44.408C16.1965 45.128 15.6205 45.64 15.1085 46.104L12.2125 48.744V51ZM25.5031 39.512L21.1671 51H23.0391L27.3431 39.512H25.5031ZM28.3085 48.248C28.3245 48.664 28.3725 49.352 28.9325 50.024C29.7005 50.936 30.8845 51.24 32.0525 51.24C34.9165 51.24 36.0365 49.096 36.0365 47.192C36.0365 44.952 34.5325 43.64 32.7405 43.64C31.5085 43.64 30.9805 44.136 30.6285 44.44L30.7725 41.672H35.4285V39.848H28.6605L28.4045 46.456L30.7245 46.52C30.8045 46.264 31.0765 45.4 32.1485 45.4C33.2205 45.4 33.6365 46.328 33.6365 47.4C33.6365 48.872 32.8525 49.496 31.9885 49.496C30.8685 49.496 30.6605 48.504 30.6765 48.248H28.3085ZM49.1883 51C49.0443 50.328 48.9963 49.64 48.9963 48.952L48.9803 45.704C48.9803 45.336 48.9643 44.376 48.4203 43.72C47.6203 42.792 46.2123 42.68 45.5403 42.68C44.7723 42.68 43.8283 42.808 43.0923 43.336C42.2443 43.944 42.1963 44.808 42.1803 45.24H44.5003C44.5003 45.048 44.5003 44.792 44.6763 44.52C44.8843 44.216 45.2363 44.072 45.5723 44.072C45.7963 44.072 46.4203 44.152 46.6283 44.744C46.7243 45.032 46.7403 45.288 46.7403 45.816C45.9563 45.816 44.5323 45.816 43.5403 46.264C42.0523 46.952 41.8283 48.136 41.8283 48.776C41.8283 49.416 42.0523 50.072 42.5323 50.552C42.8523 50.856 43.3803 51.192 44.5483 51.192C44.9963 51.192 46.0683 51.192 46.9643 49.896C46.9643 50.136 46.9643 50.504 47.0443 51H49.1883ZM46.7403 47.192C46.7403 48.056 46.7083 48.68 46.2923 49.192C46.0683 49.448 45.7163 49.656 45.2843 49.656C44.5003 49.656 44.1323 49.048 44.1323 48.504C44.1323 47.544 45.2203 47.064 46.7403 47.192ZM55.8389 49.336C55.5509 49.368 55.3909 49.384 55.0389 49.384C53.9829 49.384 53.9829 48.92 53.9669 48.184V44.536H55.8869V42.968H53.9669V40.52L51.6149 41.384V42.968H50.0629V44.536H51.6149V48.968C51.6149 49.64 51.6149 51.144 53.9989 51.144C54.3829 51.144 55.0709 51.096 55.8389 50.888V49.336ZM61.2148 48.248C61.2308 48.664 61.2788 49.352 61.8388 50.024C62.6068 50.936 63.7908 51.24 64.9588 51.24C67.8228 51.24 68.9427 49.096 68.9427 47.192C68.9427 44.952 67.4388 43.64 65.6468 43.64C64.4148 43.64 63.8868 44.136 63.5348 44.44L63.6788 41.672H68.3348V39.848H61.5668L61.3108 46.456L63.6308 46.52C63.7108 46.264 63.9828 45.4 65.0548 45.4C66.1268 45.4 66.5428 46.328 66.5428 47.4C66.5428 48.872 65.7588 49.496 64.8948 49.496C63.7748 49.496 63.5668 48.504 63.5828 48.248H61.2148ZM70.8254 51H72.8414V48.856H70.8254V51ZM70.8254 45.08H72.8414V42.92H70.8254V45.08ZM74.4145 47.96C74.4145 48.408 74.4465 49.672 75.4385 50.488C76.1585 51.064 77.3265 51.24 78.1265 51.24C80.4465 51.24 82.1745 49.832 82.1745 47.944C82.1745 47.416 82.0465 46.6 81.2625 45.944C80.7505 45.512 80.2865 45.368 79.9345 45.256C80.4305 45.112 82.0785 44.6 82.0785 42.728C82.0785 41.512 81.1665 39.688 78.3185 39.688C77.1345 39.688 75.9505 40.024 75.2145 40.92C74.6545 41.608 74.6065 42.312 74.5585 42.808H77.0065C77.0065 41.88 77.6785 41.416 78.3665 41.416C79.0865 41.416 79.7425 41.864 79.7425 42.744C79.7425 44.344 78.0945 44.376 76.9745 44.408V46.28C78.1425 46.28 79.7265 46.28 79.7265 47.928C79.7265 48.792 79.1825 49.448 78.2865 49.448C76.9585 49.448 76.8625 48.312 76.8465 47.96H74.4145ZM83.4491 48.248C83.4651 48.664 83.5131 49.352 84.0731 50.024C84.8411 50.936 86.0251 51.24 87.1931 51.24C90.0571 51.24 91.1771 49.096 91.1771 47.192C91.1771 44.952 89.6731 43.64 87.8811 43.64C86.6491 43.64 86.1211 44.136 85.7691 44.44L85.9131 41.672H90.5691V39.848H83.8011L83.5451 46.456L85.8651 46.52C85.9451 46.264 86.2171 45.4 87.2891 45.4C88.3611 45.4 88.7771 46.328 88.7771 47.4C88.7771 48.872 87.9931 49.496 87.1291 49.496C86.0091 49.496 85.8011 48.504 85.8171 48.248H83.4491ZM97.3369 51H99.8489V46.504H101.529C102.137 46.504 103.305 46.504 104.153 45.96C105.065 45.368 105.625 44.232 105.625 42.888C105.625 42.296 105.529 41.464 104.921 40.728C103.961 39.576 102.569 39.464 100.905 39.464H97.3369V51ZM99.7849 41.336H101.033C101.737 41.336 103.065 41.336 103.065 42.904C103.065 44.664 101.577 44.664 100.777 44.664H99.7849V41.336ZM107.038 51H109.358V41.08L112.446 51H114.494L117.646 41.08V51H120.11V39.432H116.174L113.534 47.848L111.086 39.432H107.038V51Z" fill="black"/>
<g clip-path="url(#clip0_186_5138)">
<path d="M74.4097 59.2051C74.6574 58.0372 73.4583 56.9589 72.2995 57.5375L71.9616 57.7062C66.8052 60.2806 61.8964 63.3304 57.2946 66.8187C56.1986 67.6494 56.7729 69.3955 58.1207 69.4569L63.7015 69.7111C64.2351 69.7354 64.7235 70.1167 64.8812 70.6792L66.4299 76.2042C66.7853 77.4724 68.6135 77.7388 69.1651 76.3884C71.3796 70.9675 73.1081 65.343 74.3296 59.5828L74.4097 59.2051Z" fill="#BB0A21"/>
</g>
<defs>
<clipPath id="clip0_186_5138">
<rect width="26" height="26" fill="white" transform="translate(53.5 56)"/>
</clipPath>
</defs>
</svg>
